<?xml version="1.0" encoding="UTF-8"?>
<svg xmlns="http://www.w3.org/2000/svg" xmlns:xlink="http://www.w3.org/1999/xlink" viewBox="0 0 208.89 205.65">
  <defs>
    <style>
      .cls-1 {
        fill: url(#_Áåçûìÿííûé_ãðàäèåíò_195-2);
      }

      .cls-1, .cls-2, .cls-3, .cls-4, .cls-5, .cls-6, .cls-7, .cls-8, .cls-9, .cls-10, .cls-11, .cls-12, .cls-13, .cls-14, .cls-15, .cls-16, .cls-17, .cls-18, .cls-19, .cls-20, .cls-21, .cls-22, .cls-23, .cls-24, .cls-25, .cls-26, .cls-27, .cls-28, .cls-29, .cls-30, .cls-31, .cls-32, .cls-33, .cls-34, .cls-35, .cls-36, .cls-37, .cls-38, .cls-39, .cls-40, .cls-41, .cls-42, .cls-43, .cls-44, .cls-45, .cls-46, .cls-47, .cls-48, .cls-49, .cls-50, .cls-51, .cls-52, .cls-53, .cls-54, .cls-55, .cls-56, .cls-57, .cls-58 {
        stroke-width: 0px;
      }

      .cls-2 {
        fill: url(#_Áåçûìÿííûé_ãðàäèåíò_102-2);
      }

      .cls-3 {
        fill: url(#_Áåçûìÿííûé_ãðàäèåíò_73-2);
      }

      .cls-3, .cls-9, .cls-11, .cls-13, .cls-14, .cls-16, .cls-17, .cls-19, .cls-25, .cls-31, .cls-59, .cls-34, .cls-35, .cls-44, .cls-53, .cls-54, .cls-60 {
        mix-blend-mode: screen;
      }

      .cls-4 {
        fill: #b069e2;
      }

      .cls-5, .cls-9 {
        fill: #ffaff5;
      }

      .cls-6 {
        fill: #8a18ed;
      }

      .cls-7 {
        fill: #181019;
      }

      .cls-8 {
        fill: #9e5bf4;
      }

      .cls-9, .cls-50 {
        opacity: .3;
      }

      .cls-10 {
        fill: url(#_Áåçûìÿííûé_ãðàäèåíò_443);
        mix-blend-mode: color-dodge;
      }

      .cls-61, .cls-27 {
        opacity: .6;
      }

      .cls-11 {
        fill: url(#_Áåçûìÿííûé_ãðàäèåíò_358);
      }

      .cls-12 {
        fill: url(#_Áåçûìÿííûé_ãðàäèåíò_118);
      }

      .cls-13 {
        fill: url(#_Áåçûìÿííûé_ãðàäèåíò_128);
      }

      .cls-14 {
        fill: url(#_Áåçûìÿííûé_ãðàäèåíò_128-5);
      }

      .cls-15 {
        fill: #ffacf6;
      }

      .cls-16 {
        fill: url(#_Áåçûìÿííûé_ãðàäèåíò_128-2);
      }

      .cls-17 {
        fill: #f5abff;
        opacity: .7;
      }

      .cls-18 {
        fill: #d473f1;
      }

      .cls-62 {
        isolation: isolate;
      }

      .cls-19 {
        fill: url(#_Áåçûìÿííûé_ãðàäèåíò_64);
      }

      .cls-20 {
        fill: #fecfc4;
      }

      .cls-21 {
        fill: url(#_Áåçûìÿííûé_ãðàäèåíò_51);
      }

      .cls-22 {
        fill: url(#_Áåçûìÿííûé_ãðàäèåíò_1831);
      }

      .cls-23 {
        fill: #ffd03b;
      }

      .cls-24 {
        fill: url(#_Áåçûìÿííûé_ãðàäèåíò_22);
      }

      .cls-25 {
        fill: url(#_Áåçûìÿííûé_ãðàäèåíò_128-4);
      }

      .cls-26 {
        fill: #e29700;
      }

      .cls-27 {
        fill: #cb89f0;
      }

      .cls-27, .cls-36, .cls-50 {
        mix-blend-mode: multiply;
      }

      .cls-28 {
        fill: #2a182a;
      }

      .cls-29 {
        fill: #6d00ba;
      }

      .cls-30 {
        fill: #fff;
      }

      .cls-31 {
        fill: #ff88c9;
      }

      .cls-32 {
        fill: #301b30;
      }

      .cls-33 {
        fill: #d66ee5;
      }

      .cls-34, .cls-36 {
        opacity: .2;
      }

      .cls-34, .cls-54 {
        fill: #ee8aff;
      }

      .cls-35 {
        fill: url(#_Áåçûìÿííûé_ãðàäèåíò_73);
      }

      .cls-36 {
        fill: #f3befb;
      }

      .cls-37 {
        fill: #ea82f5;
      }

      .cls-38 {
        fill: #962dcc;
      }

      .cls-39 {
        fill: #6c0099;
      }

      .cls-40 {
        fill: #a62fcc;
      }

      .cls-41 {
        fill: url(#_Áåçûìÿííûé_ãðàäèåíò_214);
      }

      .cls-42 {
        fill: #c334ce;
      }

      .cls-43 {
        fill: #ec84f6;
      }

      .cls-44 {
        fill: url(#_Áåçûìÿííûé_ãðàäèåíò_128-3);
      }

      .cls-45 {
        fill: #7500d1;
      }

      .cls-46 {
        fill: #e467e8;
      }

      .cls-47 {
        fill: url(#_Áåçûìÿííûé_ãðàäèåíò_102);
      }

      .cls-48 {
        fill: #201521;
      }

      .cls-49 {
        fill: url(#_Áåçûìÿííûé_ãðàäèåíò_67);
      }

      .cls-50 {
        fill: #3a0155;
      }

      .cls-51 {
        fill: url(#_Áåçûìÿííûé_ãðàäèåíò_40);
      }

      .cls-52 {
        fill: url(#_Áåçûìÿííûé_ãðàäèåíò_195);
      }

      .cls-53 {
        fill: url(#_Áåçûìÿííûé_ãðàäèåíò_358-2);
      }

      .cls-54 {
        opacity: .1;
      }

      .cls-60 {
        opacity: .5;
      }

      .cls-55 {
        fill: #ffe9bc;
      }

      .cls-56 {
        fill: #711aa3;
      }

      .cls-57 {
        fill: #f87bff;
      }

      .cls-58 {
        fill: #fdf;
      }
    </style>
    <linearGradient id="_Áåçûìÿííûé_ãðàäèåíò_195" data-name="Áåçûìÿííûé ãðàäèåíò 195" x1="35.15" y1="78.65" x2="37.28" y2="74.7" gradientUnits="userSpaceOnUse">
      <stop offset="0" stop-color="#8b3dce"/>
      <stop offset="1" stop-color="#cb89f0"/>
    </linearGradient>
    <linearGradient id="_Áåçûìÿííûé_ãðàäèåíò_195-2" data-name="Áåçûìÿííûé ãðàäèåíò 195" x1="105.98" y1="163.42" x2="109.81" y2="163.42" xlink:href="#_Áåçûìÿííûé_ãðàäèåíò_195"/>
    <linearGradient id="_Áåçûìÿííûé_ãðàäèåíò_1831" data-name="Áåçûìÿííûé ãðàäèåíò 1831" x1="37.46" y1="141.7" x2="206.78" y2="141.7" gradientUnits="userSpaceOnUse">
      <stop offset="0" stop-color="#f5abff"/>
      <stop offset=".46" stop-color="#ffc5ff"/>
      <stop offset="1" stop-color="#ffdeff"/>
    </linearGradient>
    <linearGradient id="_Áåçûìÿííûé_ãðàäèåíò_118" data-name="Áåçûìÿííûé ãðàäèåíò 118" x1="48.57" y1="134.17" x2="171.17" y2="134.17" gradientUnits="userSpaceOnUse">
      <stop offset="0" stop-color="#ffc5ff"/>
      <stop offset="1" stop-color="#ffdeff"/>
    </linearGradient>
    <linearGradient id="_Áåçûìÿííûé_ãðàäèåíò_40" data-name="Áåçûìÿííûé ãðàäèåíò 40" x1="104.42" y1="29" x2="146.24" y2="1.12" gradientUnits="userSpaceOnUse">
      <stop offset="0" stop-color="#d473f1"/>
      <stop offset=".41" stop-color="#dd7bf5"/>
      <stop offset="1" stop-color="#f28fff"/>
    </linearGradient>
    <linearGradient id="_Áåçûìÿííûé_ãðàäèåíò_128" data-name="Áåçûìÿííûé ãðàäèåíò 128" x1="86.4" y1="79.53" x2="104.49" y2="110.87" gradientUnits="userSpaceOnUse">
      <stop offset="0" stop-color="#ffec3d"/>
      <stop offset=".25" stop-color="#ffb36b"/>
      <stop offset=".49" stop-color="#ff8094"/>
      <stop offset=".71" stop-color="#ff5bb2"/>
      <stop offset=".89" stop-color="#ff45c4"/>
      <stop offset="1" stop-color="#ff3dcb"/>
    </linearGradient>
    <linearGradient id="_Áåçûìÿííûé_ãðàäèåíò_128-2" data-name="Áåçûìÿííûé ãðàäèåíò 128" x1="93.66" y1="90.21" x2="108.31" y2="115.58" xlink:href="#_Áåçûìÿííûé_ãðàäèåíò_128"/>
    <linearGradient id="_Áåçûìÿííûé_ãðàäèåíò_128-3" data-name="Áåçûìÿííûé ãðàäèåíò 128" x1="102.21" y1="99.49" x2="114.11" y2="120.09" xlink:href="#_Áåçûìÿííûé_ãðàäèåíò_128"/>
    <linearGradient id="_Áåçûìÿííûé_ãðàäèåíò_128-4" data-name="Áåçûìÿííûé ãðàäèåíò 128" x1="109.34" y1="109.3" x2="118.37" y2="124.94" xlink:href="#_Áåçûìÿííûé_ãðàäèåíò_128"/>
    <linearGradient id="_Áåçûìÿííûé_ãðàäèåíò_128-5" data-name="Áåçûìÿííûé ãðàäèåíò 128" x1="118.62" y1="119.51" x2="124.4" y2="129.52" xlink:href="#_Áåçûìÿííûé_ãðàäèåíò_128"/>
    <linearGradient id="_Áåçûìÿííûé_ãðàäèåíò_102" data-name="Áåçûìÿííûé ãðàäèåíò 102" x1="1.75" y1="116.01" x2="37.75" y2="116.01" gradientUnits="userSpaceOnUse">
      <stop offset="0" stop-color="#ff98ff"/>
      <stop offset="1" stop-color="#ffaff5"/>
    </linearGradient>
    <radialGradient id="_Áåçûìÿííûé_ãðàäèåíò_358" data-name="Áåçûìÿííûé ãðàäèåíò 358" cx="21" cy="127.5" fx="21" fy="127.5" r="22.86" gradientUnits="userSpaceOnUse">
      <stop offset="0" stop-color="#ff9412"/>
      <stop offset=".24" stop-color="#be6e0d"/>
      <stop offset=".77" stop-color="#361f03"/>
      <stop offset="1" stop-color="#000"/>
    </radialGradient>
    <radialGradient id="_Áåçûìÿííûé_ãðàäèåíò_358-2" data-name="Áåçûìÿííûé ãðàäèåíò 358" cx="42.75" cy="152.72" fx="42.75" fy="152.72" r="18.12" xlink:href="#_Áåçûìÿííûé_ãðàäèåíò_358"/>
    <linearGradient id="_Áåçûìÿííûé_ãðàäèåíò_51" data-name="Áåçûìÿííûé ãðàäèåíò 51" x1="171.39" y1="38.74" x2="164.85" y2="50.06" gradientUnits="userSpaceOnUse">
      <stop offset="0" stop-color="#ffaff5"/>
      <stop offset="1" stop-color="#ff98ff"/>
    </linearGradient>
    <linearGradient id="_Áåçûìÿííûé_ãðàäèåíò_67" data-name="Áåçûìÿííûé ãðàäèåíò 67" x1="134.7" y1="73.17" x2="133.02" y2="76.08" gradientUnits="userSpaceOnUse">
      <stop offset="0" stop-color="#ffaff5"/>
      <stop offset=".07" stop-color="#ffa6f8"/>
      <stop offset=".22" stop-color="#ff9bfd"/>
      <stop offset=".38" stop-color="#ff98ff"/>
      <stop offset=".48" stop-color="#f790fb"/>
      <stop offset=".63" stop-color="#e37cf1"/>
      <stop offset=".8" stop-color="#c35ae1"/>
      <stop offset="1" stop-color="#962dcc"/>
    </linearGradient>
    <radialGradient id="_Áåçûìÿííûé_ãðàäèåíò_73" data-name="Áåçûìÿííûé ãðàäèåíò 73" cx="145.07" cy="57.76" fx="145.07" fy="57.76" r="28.55" gradientUnits="userSpaceOnUse">
      <stop offset="0" stop-color="#ffaff5"/>
      <stop offset=".01" stop-color="#faacf0"/>
      <stop offset=".39" stop-color="#90638b"/>
      <stop offset=".68" stop-color="#422d40"/>
      <stop offset=".9" stop-color="#120c11"/>
      <stop offset="1" stop-color="#000"/>
    </radialGradient>
    <radialGradient id="_Áåçûìÿííûé_ãðàäèåíò_73-2" data-name="Áåçûìÿííûé ãðàäèåíò 73" cx="166.65" cy="45.28" fx="166.65" fy="45.28" r="14.89" xlink:href="#_Áåçûìÿííûé_ãðàäèåíò_73"/>
    <radialGradient id="_Áåçûìÿííûé_ãðàäèåíò_443" data-name="Áåçûìÿííûé ãðàäèåíò 443" cx="424.42" cy="-121.99" fx="424.42" fy="-121.99" r="5.9" gradientTransform="translate(-48.61 432.79) rotate(-45)" gradientUnits="userSpaceOnUse">
      <stop offset="0" stop-color="#ffa962"/>
      <stop offset="0" stop-color="#f5a25e"/>
      <stop offset=".04" stop-color="#c7844c"/>
      <stop offset=".07" stop-color="#9c673c"/>
      <stop offset=".1" stop-color="#774e2d"/>
      <stop offset=".14" stop-color="#563921"/>
      <stop offset=".19" stop-color="#3b2716"/>
      <stop offset=".24" stop-color="#25180e"/>
      <stop offset=".29" stop-color="#140d07"/>
      <stop offset=".36" stop-color="#080503"/>
      <stop offset=".46" stop-color="#010100"/>
      <stop offset=".74" stop-color="#000"/>
    </radialGradient>
    <linearGradient id="_Áåçûìÿííûé_ãðàäèåíò_214" data-name="Áåçûìÿííûé ãðàäèåíò 214" x1="92.3" y1="184.69" x2="92.68" y2="185.34" gradientUnits="userSpaceOnUse">
      <stop offset="0" stop-color="#40243f"/>
      <stop offset=".19" stop-color="#3d223c"/>
      <stop offset="1" stop-color="#351d35"/>
    </linearGradient>
    <linearGradient id="_Áåçûìÿííûé_ãðàäèåíò_102-2" data-name="Áåçûìÿííûé ãðàäèåíò 102" x1="418.28" y1="750.39" x2="486.13" y2="750.39" gradientTransform="translate(518.35 884.18) rotate(-60) scale(1 -1)" xlink:href="#_Áåçûìÿííûé_ãðàäèåíò_102"/>
    <radialGradient id="_Áåçûìÿííûé_ãðàäèåíò_22" data-name="Áåçûìÿííûé ãðàäèåíò 22" cx="100.82" cy="100.16" fx="100.82" fy="100.16" r="24.86" gradientUnits="userSpaceOnUse">
      <stop offset="0" stop-color="#ffe2f5"/>
      <stop offset="1" stop-color="#ffaff5"/>
    </radialGradient>
    <radialGradient id="_Áåçûìÿííûé_ãðàäèåíò_64" data-name="Áåçûìÿííûé ãðàäèåíò 64" cx="100.05" cy="100.86" fx="100.05" fy="100.86" r="35.68" gradientTransform="translate(174.79 -19.96) rotate(76.51)" gradientUnits="userSpaceOnUse">
      <stop offset="0" stop-color="#ffd84d"/>
      <stop offset=".13" stop-color="#db4dff"/>
      <stop offset=".13" stop-color="#d34af5"/>
      <stop offset=".17" stop-color="#ab3cc7"/>
      <stop offset=".2" stop-color="#862f9c"/>
      <stop offset=".24" stop-color="#662377"/>
      <stop offset=".28" stop-color="#4a1a56"/>
      <stop offset=".33" stop-color="#33113b"/>
      <stop offset=".38" stop-color="#200b25"/>
      <stop offset=".44" stop-color="#110614"/>
      <stop offset=".52" stop-color="#070208"/>
      <stop offset=".62" stop-color="#010001"/>
      <stop offset=".92" stop-color="#000"/>
    </radialGradient>
  </defs>
  <g class="cls-62">
    <g id="Layer_2" data-name="Layer 2">
      <g id="_0" data-name="0">
        <g>
          <path class="cls-50" d="M50.73,178.86c-5.42,3.13-14.21,3.13-19.63,0-5.42-3.13-5.42-8.2,0-11.33,5.42-3.13,14.21-3.13,19.63,0,5.42,3.13,5.42,8.2,0,11.33ZM30.3,151.54c-6.93-4-18.17-4-25.1,0-6.93,4-6.93,10.49,0,14.49,6.93,4,18.17,4,25.1,0,6.93-4,6.93-10.49,0-14.49Z"/>
          <g>
            <path class="cls-50" d="M205.97,142.29l-67.66-39.07c-1.07-.62-2.8-.62-3.86,0l-96.2,55.9c-1.07.62-1.05,1.63.01,2.24l41.48,23.95-23.87,13.78c-.2.12-.2.41,0,.53l10.1,5.83c.45.26,1.01.26,1.46,0l23.59-13.62,14.89,8.6c1.07.62,2.8.62,3.87,0l96.2-55.9c1.06-.62,1.04-1.62-.02-2.24Z"/>
            <g>
              <path class="cls-52" d="M6.79,58.79L104.16,2.03c.32-.18.65-.26.98-.24l-.75-.04c-.32-.02-.66.06-.98.24L6.03,58.75c-1.08.62-1.59,2.24-1.13,3.62l29.01,86.73c.33.97,1.05,1.56,1.82,1.6l.75.04c-.77-.04-1.5-.63-1.82-1.6L5.65,62.41c-.46-1.38.05-3,1.13-3.62Z"/>
              <path class="cls-7" d="M104.16,2.03c1.08-.62,2.34-.03,2.8,1.35l29.01,86.73c.46,1.38-.05,3-1.13,3.62l-97.37,56.76c-1.08.62-2.34.03-2.8-1.35L5.65,62.41c-.46-1.38.05-3,1.13-3.62L104.16,2.03Z"/>
              <g>
                <path class="cls-1" d="M37.46,150.11v2.79c0,.41.26.82.8,1.13l67.66,39.07c1.07.62,2.8.62,3.87,0l96.2-55.9c.52-.3.79-.7.79-1.1v-2.79s-169.31,16.81-169.31,16.81Z"/>
                <path class="cls-22" d="M205.97,132.16c1.07.62,1.08,1.62.02,2.24l-96.2,55.9c-1.07.62-2.8.62-3.87,0l-67.66-39.07c-1.07-.62-1.08-1.62-.01-2.24l96.2-55.9c1.06-.62,2.79-.61,3.86,0l67.66,39.07Z"/>
              </g>
              <g>
                <path class="cls-36" d="M170.38,150.11l-32.3,18.65c-.73.42-1.9.42-2.63,0l-21.41-12.36c-.73-.42-.73-1.1,0-1.52l32.3-18.65c.73-.42,1.9-.42,2.63,0l21.41,12.36c.73.42.73,1.1,0,1.52Z"/>
                <path class="cls-27" d="M114.05,155.27l32.3-18.65c.73-.42,1.9-.42,2.63,0l21.41,12.36c.28.16.45.36.51.56.11-.34-.06-.69-.51-.95l-21.41-12.36c-.73-.42-1.9-.42-2.63,0l-32.3,18.65c-.45.26-.62.62-.51.95.07-.21.24-.4.51-.56Z"/>
              </g>
              <g>
                <path class="cls-36" d="M137.28,98.5l-89.92,51.92c-.73.42-1.9.42-2.63,0l-1.26-.73c-.73-.42-.73-1.1,0-1.52l89.92-51.92c.73-.42,1.9-.42,2.63,0l1.26.73c.73.42.73,1.1,0,1.52Z"/>
                <path class="cls-27" d="M43.47,148.56l89.92-51.92c.73-.42,1.9-.42,2.63,0l1.26.73c.28.16.45.36.51.56.11-.34-.06-.69-.51-.95l-1.26-.73c-.73-.42-1.9-.42-2.63,0l-89.92,51.92c-.45.26-.62.62-.51.95.07-.21.24-.4.51-.56Z"/>
              </g>
              <path class="cls-4" d="M77.21,158.27c-.01-.05-.01-.1,0-.15-.01-.05-.01-.1,0-.15-.04-.18.05-.38.29-.52l4.35-2.51c.42-.24,1.11-.24,1.53,0l3.66,2.11c.24.14.33.33.29.52.01.05.01.1,0,.15.01.05.01.1,0,.15.04.18-.05.38-.29.52l-4.35,2.51c-.42.24-1.11.24-1.53,0l-3.66-2.11c-.24-.14-.33-.33-.29-.52ZM68.69,156.43l3.66,2.11c.42.24,1.11.24,1.53,0l4.35-2.51c.24-.14.33-.33.29-.52.01-.05.01-.1,0-.15.01-.05.01-.1,0-.15.04-.18-.05-.38-.29-.52l-3.66-2.11c-.42-.24-1.11-.24-1.53,0l-4.35,2.51c-.24.14-.33.33-.29.52-.01.05-.01.1,0,.15-.01.05-.01.1,0,.15-.04.18.05.38.29.52ZM78.79,141.97c-.24.14-.33.33-.29.52-.01.05-.01.1,0,.15-.01.05-.01.1,0,.15-.04.18.05.38.29.52l3.66,2.11c.42.24,1.11.24,1.53,0l4.35-2.51c.24-.14.33-.33.29-.52.01-.05.01-.1,0-.15.01-.05.01-.1,0-.15.04-.18-.05-.38-.29-.52-5.39-3.11-3.57-3.05-9.55.4ZM138.93,128.43l4.35-2.51c.24-.14.33-.33.29-.52.01-.05.01-.1,0-.15.01-.05.01-.1,0-.15.04-.18-.05-.38-.29-.52l-3.66-2.11c-.42-.24-1.11-.24-1.53,0l-4.35,2.51c-.24.14-.33.33-.29.52-.01.05-.01.1,0,.15-.01.05-.01.1,0,.15-.04.18.05.38.29.52l3.66,2.11c.42.24,1.11.24,1.53,0ZM89.72,156.84l4.35-2.51c.24-.14.33-.33.29-.52.01-.05.01-.1,0-.15.01-.05.01-.1,0-.15.04-.18-.05-.38-.29-.52l-3.66-2.11c-.42-.24-1.11-.24-1.53,0l-4.35,2.51c-.24.14-.33.33-.29.52-.01.05-.01.1,0,.15-.01.05-.01.1,0,.15-.04.18.05.38.29.52l3.66,2.11c.42.24,1.11.24,1.53,0ZM76.11,143.51l-4.35,2.51c-.24.14-.33.33-.29.52-.01.05-.01.1,0,.15-.01.05-.01.1,0,.15-.04.18.05.38.29.52l3.66,2.11c.42.24,1.11.24,1.53,0l4.35-2.51c.24-.14.33-.33.29-.52.01-.05.01-.1,0-.15.01-.05.01-.1,0-.15.04-.18-.05-.38-.29-.52l-3.66-2.11c-.42-.24-1.11-.24-1.53,0ZM124.87,136.55l4.35-2.51c.24-.14.33-.33.29-.52.01-.05.01-.1,0-.15.01-.05.01-.1,0-.15.04-.18-.05-.38-.29-.52l-3.66-2.11c-.42-.24-1.11-.24-1.53,0l-4.35,2.51c-.24.14-.33.33-.29.52-.01.05-.01.1,0,.15-.01.05-.01.1,0,.15-.04.18.05.38.29.52l3.66,2.11c.42.24,1.11.24,1.53,0ZM90.17,135.39l-4.35,2.51c-.24.14-.33.33-.29.52-.01.05-.01.1,0,.15-.01.05-.01.1,0,.15-.04.18.05.38.29.52l3.66,2.11c.42.24,1.11.24,1.53,0l4.35-2.51c.24-.14.33-.33.29-.52.01-.05.01-.1,0-.15.01-.05.01-.1,0-.15.04-.18-.05-.38-.29-.52l-3.66-2.11c-.42-.24-1.11-.24-1.53,0ZM117.84,140.61l4.35-2.51c.25-.14.33-.33.29-.52.01-.05.01-.1,0-.15.01-.05.01-.1,0-.15.04-.18-.05-.38-.29-.52l-3.66-2.11c-.42-.24-1.11-.24-1.53,0l-4.35,2.51c-.24.14-.33.33-.29.52-.01.05-.01.1,0,.15-.01.05-.01.1,0,.15-.04.18.05.38.29.52l3.66,2.11c.42.24,1.11.24,1.53,0ZM96.75,152.79l4.35-2.51c.24-.14.33-.33.29-.52.01-.05.01-.1,0-.15.01-.05.01-.1,0-.15.04-.18-.05-.38-.29-.52l-3.66-2.11c-.42-.24-1.11-.24-1.53,0l-4.35,2.51c-.24.14-.33.33-.29.52-.01.05-.01.1,0,.15-.01.05-.01.1,0,.15-.04.18.05.38.29.52l3.66,2.11c.42.24,1.11.24,1.53,0ZM131.9,132.49l4.35-2.51c.24-.14.33-.33.29-.52.01-.05.01-.1,0-.15.01-.05.01-.1,0-.15.04-.18-.05-.38-.29-.52l-3.66-2.11c-.42-.24-1.11-.24-1.53,0l-4.35,2.51c-.24.14-.33.33-.29.52-.01.05-.01.1,0,.15-.01.05-.01.1,0,.15-.04.18.05.38.29.52l3.66,2.11c.42.24,1.11.24,1.53,0ZM103.78,148.73l4.35-2.51c.24-.14.33-.33.29-.52.01-.05.01-.1,0-.15.01-.05.01-.1,0-.15.04-.18-.05-.38-.29-.52l-3.66-2.11c-.42-.24-1.11-.24-1.53,0l-4.35,2.51c-.24.14-.33.33-.29.52-.01.05-.01.1,0,.15-.01.05-.01.1,0,.15-.04.18.05.38.29.52l3.66,2.11c.42.24,1.11.24,1.53,0ZM110.81,144.67l4.35-2.51c.24-.14.33-.33.29-.52.01-.05.01-.1,0-.15.01-.05.01-.1,0-.15.04-.18-.05-.38-.29-.52l-3.66-2.11c-.42-.24-1.11-.24-1.53,0l-4.35,2.51c-.24.14-.33.33-.29.52-.01.05-.01.1,0,.15-.01.05-.01.1,0,.15-.04.18.05.38.29.52l3.66,2.11c.42.24,1.11.24,1.53,0ZM69.08,147.57l-4.35,2.51c-.24.14-.33.33-.29.52-.01.05-.01.1,0,.15-.01.05-.01.1,0,.15-.04.18.05.38.29.52l3.66,2.11c.42.24,1.11.24,1.53,0l4.35-2.51c.24-.14.33-.33.29-.52.01-.05.01-.1,0-.15.01-.05.01-.1,0-.15.04-.18-.05-.38-.29-.52l-3.66-2.11c-.42-.24-1.11-.24-1.53,0ZM94.97,146.36l4.35-2.51c.24-.14.33-.33.29-.52.01-.05.01-.1,0-.15.01-.05.01-.1,0-.15.04-.18-.05-.38-.29-.52l-3.66-2.11c-.42-.24-1.11-.24-1.53,0l-4.35,2.51c-.24.14-.33.33-.29.52-.01.05-.01.1,0,.15-.01.05-.01.1,0,.15-.04.18.05.38.29.52l3.66,2.11c.42.24,1.11.24,1.53,0ZM116.06,134.19l4.35-2.51c.24-.14.33-.33.29-.52.01-.05.01-.1,0-.15.01-.05.01-.1,0-.15.04-.18-.05-.38-.29-.52l-3.66-2.11c-.42-.24-1.11-.24-1.53,0l-4.35,2.51c-.24.14-.33.33-.29.52-.01.05-.01.1,0,.15-.01.05-.01.1,0,.15-.04.18.05.38.29.52l3.66,2.11c.42.24,1.11.24,1.53,0ZM109.03,138.25l4.35-2.51c.24-.14.33-.33.29-.52.01-.05.01-.1,0-.15.01-.05.01-.1,0-.15.04-.18-.05-.38-.29-.52l-3.66-2.11c-.42-.24-1.11-.24-1.53,0l-4.35,2.51c-.24.14-.33.33-.29.52-.01.05-.01.1,0,.15-.01.05-.01.1,0,.15-.04.18.05.38.29.52l3.66,2.11c.42.24,1.11.24,1.53,0ZM102,142.31l4.35-2.51c.24-.14.33-.33.29-.52.01-.05.01-.1,0-.15.01-.05.01-.1,0-.15.04-.18-.05-.38-.29-.52l-3.66-2.11c-.42-.24-1.11-.24-1.53,0l-4.35,2.51c-.24.14-.33.33-.29.52-.01.05-.01.1,0,.15-.01.05-.01.1,0,.15-.04.18.05.38.29.52l3.66,2.11c.42.24,1.11.24,1.53,0ZM154.58,113.36c-.01.05-.01.1,0,.15-.01.05-.01.1,0,.15-.04.18.05.38.29.52l3.66,2.11c.42.24,1.11.24,1.53,0l4.35-2.51c.24-.14.33-.33.29-.52.01-.05.01-.1,0-.15.01-.05.01-.1,0-.15.04-.18-.05-.38-.29-.52l-3.66-2.11c-.42-.24-1.11-.24-1.53,0l-4.35,2.51c-.24.14-.33.33-.29.52ZM87.94,150.42l4.35-2.51c.24-.14.33-.33.29-.52.01-.05.01-.1,0-.15.01-.05.01-.1,0-.15.04-.18-.05-.38-.29-.52l-3.66-2.11c-.42-.24-1.11-.24-1.53,0l-4.35,2.51c-.24.14-.33.33-.29.52-.01.05-.01.1,0,.15-.01.05-.01.1,0,.15-.04.18.05.38.29.52l3.66,2.11c.42.24,1.11.24,1.53,0ZM81.6,148.52c-.42-.24-1.11-.24-1.53,0l-4.35,2.51c-.24.14-.33.33-.29.52-.01.05-.01.1,0,.15-.01.05-.01.1,0,.15-.04.18.05.38.29.52l3.66,2.11c.42.24,1.11.24,1.53,0l4.35-2.51c.24-.14.33-.33.29-.52.01-.05.01-.1,0-.15.01-.05.01-.1,0-.15.04-.18-.05-.38-.29-.52l-3.66-2.11ZM104.23,127.28l-4.35,2.51c-.24.14-.33.33-.29.52-.01.05-.01.1,0,.15-.01.05-.01.1,0,.15-.04.18.05.38.29.52l3.66,2.11c.42.24,1.11.24,1.53,0l4.35-2.51c.24-.14.33-.33.29-.52.01-.05.01-.1,0-.15.01-.05.01-.1,0-.15.04-.18-.05-.38-.29-.52l-3.66-2.11c-.42-.24-1.11-.24-1.53,0ZM111.26,123.22l-4.35,2.51c-.24.14-.33.33-.29.52-.01.05-.01.1,0,.15-.01.05-.01.1,0,.15-.04.18.05.38.29.52l3.66,2.11c.42.24,1.11.24,1.53,0l4.35-2.51c.24-.14.33-.33.29-.52.01-.05.01-.1,0-.15.01-.05.01-.1,0-.15.04-.18-.05-.38-.29-.52l-3.66-2.11c-.42-.24-1.11-.24-1.53,0ZM123.09,130.13l4.35-2.51c.24-.14.33-.33.29-.52.01-.05.01-.1,0-.15.01-.05.01-.1,0-.15.04-.18-.05-.38-.29-.52l-3.66-2.11c-.42-.24-1.11-.24-1.53,0l-4.35,2.51c-.24.14-.33.33-.29.52-.01.05-.01.1,0,.15-.01.05-.01.1,0,.15-.04.18.05.38.29.52l3.66,2.11c.42.24,1.11.24,1.53,0ZM118.29,119.16l-4.35,2.51c-.24.14-.33.33-.29.52-.01.05-.01.1,0,.15-.01.05-.01.1,0,.15-.04.18.05.38.29.52l3.66,2.11c.42.24,1.11.24,1.53,0l4.35-2.51c.24-.14.33-.33.29-.52.01-.05.01-.1,0-.15.01-.05.01-.1,0-.15.04-.18-.05-.38-.29-.52l-3.66-2.11c-.42-.24-1.11-.24-1.53,0ZM97.2,131.34l-4.35,2.51c-.24.14-.33.33-.29.52-.01.05-.01.1,0,.15-.01.05-.01.1,0,.15-.04.18.05.38.29.52,3.59,2.07,4.22,2.68,5.19,2.11l4.35-2.51c.24-.14.33-.33.29-.52.01-.05.01-.1,0-.15.01-.05.01-.1,0-.15.04-.18-.05-.38-.29-.52l-3.66-2.11c-.42-.24-1.11-.24-1.53,0ZM130.11,126.07l6.62-3.82c.24-.14.33-.33.29-.52.01-.05.01-.1,0-.15.01-.05.01-.1,0-.15.04-.18-.05-.38-.29-.52l-3.66-2.11c-.42-.24-1.11-.24-1.53,0l-6.62,3.82c-.24.14-.33.33-.29.52-.01.05-.01.1,0,.15-.01.05-.01.1,0,.15-.04.18.05.38.29.52l3.66,2.11c.42.24,1.11.24,1.53,0ZM130.51,117.22l-3.66-2.11c-.42-.24-1.11-.24-1.53,0l-4.35,2.51c-.24.14-.33.33-.29.52-.01.05-.01.1,0,.15-.01.05-.01.1,0,.15-.04.18.05.38.29.52l3.66,2.11c.42.24,1.11.24,1.53,0l4.35-2.51c.24-.14.33-.33.29-.52.01-.05.01-.1,0-.15.01-.05.01-.1,0-.15.04-.18-.05-.38-.29-.52ZM105.12,120.64l3.66,2.11c.42.24,1.11.24,1.53,0l4.35-2.51c.24-.14.33-.33.29-.52.01-.05.01-.1,0-.15.01-.05.01-.1,0-.15.04-.18-.05-.38-.29-.52l-3.66-2.11c-.42-.24-1.11-.24-1.53,0l-4.35,2.51c-.24.14-.33.33-.29.52-.01.05-.01.1,0,.15-.01.05-.01.1,0,.15-.04.18.05.38.29.52ZM83.95,166.11l-3.66-2.11c-.42-.24-1.11-.24-1.53,0l-4.35,2.51c-.24.14-.33.33-.29.52-.01.05-.01.1,0,.15-.01.05-.01.1,0,.15-.04.18.05.38.29.52l3.66,2.11c.42.24,1.11.24,1.53,0l4.35-2.51c.24-.14.33-.33.29-.52.01-.05.01-.1,0-.15.01-.05.01-.1,0-.15.04-.18-.05-.38-.29-.52ZM90.98,162.05l-3.66-2.11c-.42-.24-1.11-.24-1.53,0l-4.35,2.51c-.24.14-.33.33-.29.52-.01.05-.01.1,0,.15-.01.05-.01.1,0,.15-.04.18.05.38.29.52l3.66,2.11c.42.24,1.11.24,1.53,0l4.35-2.51c.25-.14.33-.33.29-.52.01-.05.01-.1,0-.15.01-.05.01-.1,0-.15.04-.18-.05-.38-.29-.52ZM80.31,161.93c.01-.05.01-.1,0-.15.01-.05.01-.1,0-.15.04-.18-.05-.38-.29-.52l-3.66-2.11c-.42-.24-1.11-.24-1.53,0l-6.62,3.82c-.24.14-.33.33-.29.52-.01.05-.01.1,0,.15-.01.05-.01.1,0,.15-.04.18.05.38.29.52l3.66,2.11c.42.24,1.11.24,1.53,0l6.62-3.82c.24-.14.33-.33.29-.52ZM98.01,158l-3.66-2.11c-.42-.24-1.11-.24-1.53,0l-4.35,2.51c-.24.14-.33.33-.29.52-.01.05-.01.1,0,.15-.01.05-.01.1,0,.15-.04.18.05.38.29.52l3.66,2.11c.42.24,1.11.24,1.53,0l4.35-2.51c.24-.14.33-.33.29-.52.01-.05.01-.1,0-.15.01-.05.01-.1,0-.15.04-.18-.05-.38-.29-.52ZM58.72,152.19c.01-.05.01-.1,0-.15.01-.05.01-.1,0-.15.04-.18-.05-.38-.29-.52l-3.66-2.11c-.42-.24-1.11-.24-1.53,0l-4.35,2.51c-.25.14-.33.33-.29.52-.01.05-.01.1,0,.15-.01.05-.01.1,0,.15-.04.18.05.38.29.52l3.66,2.11c.42.24,1.11.24,1.53,0l4.35-2.51c.24-.14.33-.33.29-.52ZM71.5,159.57c.01-.05.01-.1,0-.15.01-.05.01-.1,0-.15.04-.18-.05-.38-.29-.52l-3.66-2.11c-.42-.24-1.11-.24-1.53,0l-4.35,2.51c-.24.14-.33.33-.29.52-.01.05-.01.1,0,.15-.01.05-.01.1,0,.15-.04.18.05.38.29.52l3.66,2.11c.42.24,1.11.24,1.53,0l4.35-2.51c.24-.14.33-.33.29-.52ZM67.54,154.56c.01-.05.01-.1,0-.15.01-.05.01-.1,0-.15.04-.18-.05-.38-.29-.52l-3.66-2.11c-.42-.24-1.11-.24-1.53,0l-6.62,3.82c-.24.14-.33.33-.29.52-.01.05-.01.1,0,.15-.01.05-.01.1,0,.15-.04.18.05.38.29.52l3.66,2.11c.42.24,1.11.24,1.53,0l6.62-3.82c.24-.14.33-.33.29-.52ZM170.85,116.16l-3.66-2.11c-.42-.24-1.11-.24-1.53,0l-4.35,2.51c-.24.14-.33.33-.29.52-.01.05-.01.1,0,.15-.01.05-.01.1,0,.15-.04.18.05.38.29.52l3.66,2.11c.42.24,1.11.24,1.53,0l4.35-2.51c.24-.14.33-.33.29-.52.01-.05.01-.1,0-.15.01-.05.01-.1,0-.15.04-.18-.05-.38-.29-.52ZM156.79,124.27l-3.66-2.11c-.42-.24-1.11-.24-1.53,0l-4.35,2.51c-.25.14-.33.33-.29.52-.01.05-.01.1,0,.15-.01.05-.01.1,0,.15-.04.18.05.38.29.52l3.66,2.11c.42.24,1.11.24,1.53,0l4.35-2.51c.24-.14.33-.33.29-.52.01-.05.01-.1,0-.15.01-.05.01-.1,0-.15.04-.18-.05-.38-.29-.52ZM163.82,120.21l-3.66-2.11c-.42-.24-1.11-.24-1.53,0l-4.35,2.51c-.24.14-.33.33-.29.52-.01.05-.01.1,0,.15-.01.05-.01.1,0,.15-.04.18.05.38.29.52l3.66,2.11c.42.24,1.11.24,1.53,0l4.35-2.51c.24-.14.33-.33.29-.52.01-.05.01-.1,0-.15.01-.05.01-.1,0-.15.04-.18-.05-.38-.29-.52ZM105.04,153.94l-3.66-2.11c-.42-.24-1.11-.24-1.53,0l-4.35,2.51c-.24.14-.33.33-.29.52-.01.05-.01.1,0,.15-.01.05-.01.1,0,.15-.04.18.05.38.29.52l3.66,2.11c.42.24,1.11.24,1.53,0l4.35-2.51c.24-.14.33-.33.29-.52.01-.05.01-.1,0-.15.01-.05.01-.1,0-.15.04-.18-.05-.38-.29-.52ZM55.91,149.05l3.66,2.11c.42.24,1.11.24,1.53,0l4.35-2.51c.24-.14.33-.33.29-.52.01-.05.01-.1,0-.15.01-.05.01-.1,0-.15.04-.18-.05-.38-.29-.52l-3.66-2.11c-.42-.24-1.11-.24-1.53,0l-4.35,2.51c-.24.14-.33.33-.29.52-.01.05-.01.1,0,.15-.01.05-.01.1,0,.15-.04.18.05.38.29.52ZM140.3,133.65l-3.66-2.11c-.42-.24-1.11-.24-1.53,0l-32.55,18.8c-.24.14-.33.33-.29.52-.01.05-.01.1,0,.15-.01.05-.01.1,0,.15-.04.18.05.38.29.52l3.66,2.11c.42.24,1.11.24,1.53,0l32.55-18.8c.24-.14.33-.33.29-.52.01-.05.01-.1,0-.15.01-.05.01-.1,0-.15.04-.18-.05-.38-.29-.52ZM149.44,128.3l-3.66-2.11c-.42-.24-1.11-.24-1.53,0l-6.62,3.82c-.24.14-.33.33-.29.52-.01.05-.01.1,0,.15-.01.05-.01.1,0,.15-.04.18.05.38.29.52l3.66,2.11c.42.24,1.11.24,1.53,0l6.62-3.82c.24-.14.33-.33.29-.52.01-.05.01-.1,0-.15.01-.05.01-.1,0-.15.04-.18-.05-.38-.29-.52ZM146.01,124.41l4.35-2.51c.24-.14.33-.33.29-.52.01-.05.01-.1,0-.15.01-.05.01-.1,0-.15.04-.18-.05-.38-.29-.52l-3.66-2.11c-.42-.24-1.11-.24-1.53,0l-4.35,2.51c-.24.14-.33.33-.29.52-.01.05-.01.1,0,.15-.01.05-.01.1,0,.15-.04.18.05.38.29.52l3.66,2.11c.42.24,1.11.24,1.53,0ZM135.63,103.07l3.66,2.11c.42.24,1.11.24,1.53,0l4.35-2.51c.24-.14.33-.33.29-.52.01-.05.01-.1,0-.15.01-.05.01-.1,0-.15.04-.18-.05-.38-.29-.52l-3.66-2.11c-.42-.24-1.11-.24-1.53,0l-4.35,2.51c-.24.14-.33.33-.29.52-.01.05-.01.1,0,.15-.01.05-.01.1,0,.15-.04.18.05.38.29.52ZM128.6,107.12l3.66,2.11c.42.24,1.11.24,1.53,0l4.35-2.51c.24-.14.33-.33.29-.52.01-.05.01-.1,0-.15.01-.05.01-.1,0-.15.04-.18-.05-.38-.29-.52l-3.66-2.11c-.42-.24-1.11-.24-1.53,0l-4.35,2.51c-.24.14-.33.33-.29.52-.01.05-.01.1,0,.15-.01.05-.01.1,0,.15-.04.18.05.38.29.52ZM112.15,116.58l3.66,2.11c.42.24,1.11.24,1.53,0l6.62-3.82c.24-.14.33-.33.29-.52.01-.05.01-.1,0-.15.01-.05.01-.1,0-.15.04-.18-.05-.38-.29-.52l-3.66-2.11c-.42-.24-1.11-.24-1.53,0l-6.62,3.82c-.24.14-.33.33-.29.52-.01.05-.01.1,0,.15-.01.05-.01.1,0,.15-.04.18.05.38.29.52ZM121.58,111.18l3.66,2.11c.42.24,1.11.24,1.53,0l4.35-2.51c.24-.14.33-.33.29-.52.01-.05.01-.1,0-.15.01-.05.01-.1,0-.15.04-.18-.05-.38-.29-.52l-3.66-2.11c-.42-.24-1.11-.24-1.53,0l-4.35,2.51c-.24.14-.33.33-.29.52-.01.05-.01.1,0,.15-.01.05-.01.1,0,.15-.04.18.05.38.29.52ZM141.75,105.95c-.01.05-.01.1,0,.15-.01.05-.01.1,0,.15-.04.18.05.38.29.52l3.66,2.11c.42.24,1.11.24,1.53,0l4.35-2.51c.24-.14.33-.33.29-.52.01-.05.01-.1,0-.15.01-.05.01-.1,0-.15.04-.18-.05-.38-.29-.52l-3.66-2.11c-.42-.24-1.11-.24-1.53,0l-4.35,2.51c-.24.14-.33.33-.29.52ZM153.04,120.35l4.35-2.51c.24-.14.33-.33.29-.52.01-.05.01-.1,0-.15.01-.05.01-.1,0-.15.04-.18-.05-.38-.29-.52l-3.66-2.11c-.42-.24-1.11-.24-1.53,0l-4.35,2.51c-.24.14-.33.33-.29.52-.01.05-.01.1,0,.15-.01.05-.01.1,0,.15-.04.18.05.38.29.52l3.66,2.11c.42.24,1.11.24,1.53,0ZM69.97,140.93l3.66,2.11c.42.24,1.11.24,1.53,0l4.35-2.51c.24-.14.33-.33.29-.52.01-.05.01-.1,0-.15.01-.05.01-.1,0-.15.04-.18-.05-.38-.29-.52l-3.66-2.11c-.42-.24-1.11-.24-1.53,0l-4.35,2.51c-.24.14-.33.33-.29.52-.01.05-.01.1,0,.15-.01.05-.01.1,0,.15-.04.18.05.38.29.52ZM77,136.88c5.28,3.05,3.45,3.12,9.55-.4.24-.14.33-.33.29-.52.01-.05.01-.1,0-.15.01-.05.01-.1,0-.15.04-.18-.05-.38-.29-.52l-3.66-2.11c-.42-.24-1.11-.24-1.53,0l-4.35,2.51c-.24.14-.33.33-.29.52-.01.05-.01.1,0,.15-.01.05-.01.1,0,.15-.04.18.05.38.29.52ZM62.94,144.99l3.66,2.11c.42.24,1.11.24,1.53,0l4.35-2.51c.24-.14.33-.33.29-.52.01-.05.01-.1,0-.15.01-.05.01-.1,0-.15.04-.18-.05-.38-.29-.52l-3.66-2.11c-.42-.24-1.11-.24-1.53,0l-4.35,2.51c-.24.14-.33.33-.29.52-.01.05-.01.1,0,.15-.01.05-.01.1,0,.15-.04.18.05.38.29.52ZM84.03,132.82l3.66,2.11c.42.24,1.11.24,1.53,0l4.35-2.51c.24-.14.33-.33.29-.52.01-.05.01-.1,0-.15.01-.05.01-.1,0-.15.04-.18-.05-.38-.29-.52l-3.66-2.11c-.42-.24-1.11-.24-1.53,0l-4.35,2.51c-.24.14-.33.33-.29.52-.01.05-.01.1,0,.15-.01.05-.01.1,0,.15-.04.18.05.38.29.52ZM98.09,124.7l3.66,2.11c.42.24,1.11.24,1.53,0l4.35-2.51c.24-.14.33-.33.29-.52.01-.05.01-.1,0-.15.01-.05.01-.1,0-.15.04-.18-.05-.38-.29-.52l-3.66-2.11c-.42-.24-1.11-.24-1.53,0l-4.35,2.51c-.24.14-.33.33-.29.52-.01.05-.01.1,0,.15-.01.05-.01.1,0,.15-.04.18.05.38.29.52ZM91.06,128.76l3.66,2.11c.42.24,1.11.24,1.53,0l4.35-2.51c.24-.14.33-.33.29-.52.01-.05.01-.1,0-.15.01-.05.01-.1,0-.15.04-.18-.05-.38-.29-.52l-3.66-2.11c-.42-.24-1.11-.24-1.53,0l-4.35,2.51c-.24.14-.33.33-.29.52-.01.05-.01.1,0,.15-.01.05-.01.1,0,.15-.04.18.05.38.29.52ZM145.75,109.88l-4.82-2.78c-.53-.3-1.38-.3-1.9,0l-11.03,6.37c-.3.17-.41.4-.37.62,0,.05,0,.1,0,.15,0,.05,0,.1,0,.15-.04.22.07.45.37.62l9.62,5.55c.53.3,1.38.3,1.9,0l18.3-10.57c.3-.17.41-.4.37-.62,0-.05,0-.1,0-.15,0-.05,0-.1,0-.15.04-.22-.07-.45-.37-.62l-3.58-2.07c-.35-.2-.91-.2-1.27,0l-6.15,3.5c-.3.17-.78.17-1.07,0Z"/>
              <g>
                <path class="cls-48" d="M93.98,185.61l-3.38-1.95c-.19-.11-.35-.36-.35-.55v-.79c0-.19.16-.26.35-.15l3.38,1.95c.19.11.35.36.35.55v.79c0,.19-.16.26-.35.15Z"/>
                <path class="cls-48" d="M88.74,182.58l-3.38-1.95c-.19-.11-.35-.36-.35-.55v-.79c0-.19.16-.26.35-.15l3.38,1.95c.19.11.35.36.35.55v.79c0,.19-.16.26-.35.15Z"/>
              </g>
              <path class="cls-12" d="M58.43,152.07l-4.35,2.51c-.42.24-1.11.24-1.53,0l-3.66-2.11c-.42-.24-.42-.64,0-.88l4.35-2.51c.42-.24,1.11-.24,1.53,0l3.66,2.11c.42.24.42.64,0,.88ZM65.46,147.13l-3.66-2.11c-.42-.24-1.11-.24-1.53,0l-4.35,2.51c-.42.24-.42.64,0,.88l3.66,2.11c.42.24,1.11.24,1.53,0l4.35-2.51c.42-.24.42-.64,0-.88ZM72.49,143.07l-3.66-2.11c-.42-.24-1.11-.24-1.53,0l-4.35,2.51c-.42.24-.42.64,0,.88l3.66,2.11c.42.24,1.11.24,1.53,0l4.35-2.51c.42-.24.42-.64,0-.88ZM79.52,139.01l-3.66-2.11c-.42-.24-1.11-.24-1.53,0l-4.35,2.51c-.42.24-.42.64,0,.88l3.66,2.11c.42.24,1.11.24,1.53,0l4.35-2.51c.42-.24.42-.64,0-.88ZM86.55,134.95l-3.66-2.11c-.42-.24-1.11-.24-1.53,0l-4.35,2.51c-.42.24-.42.64,0,.88l3.66,2.11c.42.24,1.11.24,1.53,0l4.35-2.51c.42-.24.42-.64,0-.88ZM93.58,130.89l-3.66-2.11c-.42-.24-1.11-.24-1.53,0l-4.35,2.51c-.42.24-.42.64,0,.88l3.66,2.11c.42.24,1.11.24,1.53,0l4.35-2.51c.42-.24.42-.64,0-.88ZM100.61,126.84l-3.66-2.11c-.42-.24-1.11-.24-1.53,0l-4.35,2.51c-.42.24-.42.64,0,.88l3.66,2.11c.42.24,1.11.24,1.53,0l4.35-2.51c.42-.24.42-.64,0-.88ZM107.64,122.78l-3.66-2.11c-.42-.24-1.11-.24-1.53,0l-4.35,2.51c-.42.24-.42.64,0,.88l3.66,2.11c.42.24,1.11.24,1.53,0l4.35-2.51c.42-.24.42-.64,0-.88ZM114.67,118.72l-3.66-2.11c-.42-.24-1.11-.24-1.53,0l-4.35,2.51c-.42.24-.42.64,0,.88l3.66,2.11c.42.24,1.11.24,1.53,0l4.35-2.51c.42-.24.42-.64,0-.88ZM123.96,113.35l-3.66-2.11c-.42-.24-1.11-.24-1.53,0l-6.62,3.82c-.42.24-.42.64,0,.88l3.66,2.11c.42.24,1.11.24,1.53,0l6.62-3.82c.42-.24.42-.64,0-.88ZM150.36,120.37l-3.66-2.11c-.42-.24-1.11-.24-1.53,0l-4.35,2.51c-.42.24-.42.64,0,.88l3.66,2.11c.42.24,1.11.24,1.53,0l4.35-2.51c.42-.24.42-.64,0-.88ZM157.39,116.31l-3.66-2.11c-.42-.24-1.11-.24-1.53,0l-4.35,2.51c-.42.24-.42.64,0,.88l3.66,2.11c.42.24,1.11.24,1.53,0l4.35-2.51c.42-.24.42-.64,0-.88ZM164.42,112.25l-3.66-2.11c-.42-.24-1.11-.24-1.53,0l-4.35,2.51c-.42.24-.42.64,0,.88l3.66,2.11c.42.24,1.11.24,1.53,0l4.35-2.51c.42-.24.42-.64,0-.88ZM156.79,124.08l-3.66-2.11c-.42-.24-1.11-.24-1.53,0l-4.35,2.51c-.42.24-.42.64,0,.88l3.66,2.11c.42.24,1.11.24,1.53,0l4.35-2.51c.42-.24.42-.64,0-.88ZM163.82,120.02l-3.66-2.11c-.42-.24-1.11-.24-1.53,0l-4.35,2.51c-.42.24-.42.64,0,.88l3.66,2.11c.42.24,1.11.24,1.53,0l4.35-2.51c.42-.24.42-.64,0-.88ZM170.85,115.96l-3.66-2.11c-.42-.24-1.11-.24-1.53,0l-4.35,2.51c-.42.24-.42.64,0,.88l3.66,2.11c.42.24,1.11.24,1.53,0l4.35-2.51c.42-.24.42-.64,0-.88ZM67.24,153.55l-3.66-2.11c-.42-.24-1.11-.24-1.53,0l-6.62,3.82c-.42.24-.42.64,0,.88l3.66,2.11c.42.24,1.11.24,1.53,0l6.62-3.82c.42-.24.42-.64,0-.88ZM74.27,149.49l-3.66-2.11c-.42-.24-1.11-.24-1.53,0l-4.35,2.51c-.42.24-.42.64,0,.88l3.66,2.11c.42.24,1.11.24,1.53,0l4.35-2.51c.42-.24.42-.64,0-.88ZM81.3,145.43l-3.66-2.11c-.42-.24-1.11-.24-1.53,0l-4.35,2.51c-.42.24-.42.64,0,.88l3.66,2.11c.42.24,1.11.24,1.53,0l4.35-2.51c.42-.24.42-.64,0-.88ZM88.33,141.37l-3.66-2.11c-.42-.24-1.11-.24-1.53,0l-4.35,2.51c-.42.24-.42.64,0,.88l3.66,2.11c.42.24,1.11.24,1.53,0l4.35-2.51c.42-.24.42-.64,0-.88ZM95.36,137.31l-3.66-2.11c-.42-.24-1.11-.24-1.53,0l-4.35,2.51c-.42.24-.42.64,0,.88l3.66,2.11c.42.24,1.11.24,1.53,0l4.35-2.51c.42-.24.42-.64,0-.88ZM102.39,133.26l-3.66-2.11c-.42-.24-1.11-.24-1.53,0l-4.35,2.51c-.42.24-.42.64,0,.88l3.66,2.11c.42.24,1.11.24,1.53,0l4.35-2.51c.42-.24.42-.64,0-.88ZM109.42,129.2l-3.66-2.11c-.42-.24-1.11-.24-1.53,0l-4.35,2.51c-.42.24-.42.64,0,.88l3.66,2.11c.42.24,1.11.24,1.53,0l4.35-2.51c.42-.24.42-.64,0-.88ZM116.45,125.14l-3.66-2.11c-.42-.24-1.11-.24-1.53,0l-4.35,2.51c-.42.24-.42.64,0,.88l3.66,2.11c.42.24,1.11.24,1.53,0l4.35-2.51c.42-.24.42-.64,0-.88ZM123.48,121.08l-3.66-2.11c-.42-.24-1.11-.24-1.53,0l-4.35,2.51c-.42.24-.42.64,0,.88l3.66,2.11c.42.24,1.11.24,1.53,0l4.35-2.51c.42-.24.42-.64,0-.88ZM130.51,117.02l-3.66-2.11c-.42-.24-1.11-.24-1.53,0l-4.35,2.51c-.42.24-.42.64,0,.88l3.66,2.11c.42.24,1.11.24,1.53,0l4.35-2.51c.42-.24.42-.64,0-.88ZM71.21,158.56l-3.66-2.11c-.42-.24-1.11-.24-1.53,0l-4.35,2.51c-.42.24-.42.64,0,.88l3.66,2.11c.42.24,1.11.24,1.53,0l4.35-2.51c.42-.24.42-.64,0-.88ZM78.23,154.5l-3.66-2.11c-.42-.24-1.11-.24-1.53,0l-4.35,2.51c-.42.24-.42.64,0,.88l3.66,2.11c.42.24,1.11.24,1.53,0l4.35-2.51c.42-.24.42-.64,0-.88ZM85.26,150.44l-3.66-2.11c-.42-.24-1.11-.24-1.53,0l-4.35,2.51c-.42.24-.42.64,0,.88l3.66,2.11c.42.24,1.11.24,1.53,0l4.35-2.51c.42-.24.42-.64,0-.88ZM92.29,146.39l-3.66-2.11c-.42-.24-1.11-.24-1.53,0l-4.35,2.51c-.42.24-.42.64,0,.88l3.66,2.11c.42.24,1.11.24,1.53,0l4.35-2.51c.42-.24.42-.64,0-.88ZM83.95,165.92l-3.66-2.11c-.42-.24-1.11-.24-1.53,0l-4.35,2.51c-.42.24-.42.64,0,.88l3.66,2.11c.42.24,1.11.24,1.53,0l4.35-2.51c.42-.24.42-.64,0-.88ZM90.98,161.86l-3.66-2.11c-.42-.24-1.11-.24-1.53,0l-4.35,2.51c-.42.24-.42.64,0,.88l3.66,2.11c.42.24,1.11.24,1.53,0l4.35-2.51c.42-.24.42-.64,0-.88ZM98.01,157.8l-3.66-2.11c-.42-.24-1.11-.24-1.53,0l-4.35,2.51c-.42.24-.42.64,0,.88l3.66,2.11c.42.24,1.11.24,1.53,0l4.35-2.51c.42-.24.42-.64,0-.88ZM105.04,153.74l-3.66-2.11c-.42-.24-1.11-.24-1.53,0l-4.35,2.51c-.42.24-.42.64,0,.88l3.66,2.11c.42.24,1.11.24,1.53,0l4.35-2.51c.42-.24.42-.64,0-.88ZM149.44,128.11l-3.66-2.11c-.42-.24-1.11-.24-1.53,0l-6.62,3.82c-.42.24-.42.64,0,.88l3.66,2.11c.42.24,1.11.24,1.53,0l6.62-3.82c.42-.24.42-.64,0-.88ZM99.32,142.33l-3.66-2.11c-.42-.24-1.11-.24-1.53,0l-4.35,2.51c-.42.24-.42.64,0,.88l3.66,2.11c.42.24,1.11.24,1.53,0l4.35-2.51c.42-.24.42-.64,0-.88ZM106.35,138.27l-3.66-2.11c-.42-.24-1.11-.24-1.53,0l-4.35,2.51c-.42.24-.42.64,0,.88l3.66,2.11c.42.24,1.11.24,1.53,0l4.35-2.51c.42-.24.42-.64,0-.88ZM113.38,134.21l-3.66-2.11c-.42-.24-1.11-.24-1.53,0l-4.35,2.51c-.42.24-.42.64,0,.88l3.66,2.11c.42.24,1.11.24,1.53,0l4.35-2.51c.42-.24.42-.64,0-.88ZM120.41,130.15l-3.66-2.11c-.42-.24-1.11-.24-1.53,0l-4.35,2.51c-.42.24-.42.64,0,.88l3.66,2.11c.42.24,1.11.24,1.53,0l4.35-2.51c.42-.24.42-.64,0-.88ZM127.44,126.09l-3.66-2.11c-.42-.24-1.11-.24-1.53,0l-4.35,2.51c-.42.24-.42.64,0,.88l3.66,2.11c.42.24,1.11.24,1.53,0l4.35-2.51c.42-.24.42-.64,0-.88ZM136.73,120.73l-3.66-2.11c-.42-.24-1.11-.24-1.53,0l-6.62,3.82c-.42.24-.42.64,0,.88l3.66,2.11c.42.24,1.11.24,1.53,0l6.62-3.82c.42-.24.42-.64,0-.88ZM80.02,160.92l-3.66-2.11c-.42-.24-1.11-.24-1.53,0l-6.62,3.82c-.42.24-.42.64,0,.88l3.66,2.11c.42.24,1.11.24,1.53,0l6.62-3.82c.42-.24.42-.64,0-.88ZM87.05,156.86l-3.66-2.11c-.42-.24-1.11-.24-1.53,0l-4.35,2.51c-.42.24-.42.64,0,.88l3.66,2.11c.42.24,1.11.24,1.53,0l4.35-2.51c.42-.24.42-.64,0-.88ZM94.08,152.81l-3.66-2.11c-.42-.24-1.11-.24-1.53,0l-4.35,2.51c-.42.24-.42.64,0,.88l3.66,2.11c.42.24,1.11.24,1.53,0l4.35-2.51c.42-.24.42-.64,0-.88ZM101.11,148.75l-3.66-2.11c-.42-.24-1.11-.24-1.53,0l-4.35,2.51c-.42.24-.42.64,0,.88l3.66,2.11c.42.24,1.11.24,1.53,0l4.35-2.51c.42-.24.42-.64,0-.88ZM108.14,144.69l-3.66-2.11c-.42-.24-1.11-.24-1.53,0l-4.35,2.51c-.42.24-.42.64,0,.88l3.66,2.11c.42.24,1.11.24,1.53,0l4.35-2.51c.42-.24.42-.64,0-.88ZM140.3,133.46l-3.66-2.11c-.42-.24-1.11-.24-1.53,0l-32.55,18.8c-.42.24-.42.64,0,.88l3.66,2.11c.42.24,1.11.24,1.53,0l32.55-18.8c.42-.24.42-.64,0-.88ZM115.16,140.63l-3.66-2.11c-.42-.24-1.11-.24-1.53,0l-4.35,2.51c-.42.24-.42.64,0,.88l3.66,2.11c.42.24,1.11.24,1.53,0l4.35-2.51c.42-.24.42-.64,0-.88ZM122.19,136.57l-3.66-2.11c-.42-.24-1.11-.24-1.53,0l-4.35,2.51c-.42.24-.42.64,0,.88l3.66,2.11c.42.24,1.11.24,1.53,0l4.35-2.51c.42-.24.42-.64,0-.88ZM129.22,132.51l-3.66-2.11c-.42-.24-1.11-.24-1.53,0l-4.35,2.51c-.42.24-.42.64,0,.88l3.66,2.11c.42.24,1.11.24,1.53,0l4.35-2.51c.42-.24.42-.64,0-.88ZM136.25,128.46l-3.66-2.11c-.42-.24-1.11-.24-1.53,0l-4.35,2.51c-.42.24-.42.64,0,.88l3.66,2.11c.42.24,1.11.24,1.53,0l4.35-2.51c.42-.24.42-.64,0-.88ZM143.28,124.4l-3.66-2.11c-.42-.24-1.11-.24-1.53,0l-4.35,2.51c-.42.24-.42.64,0,.88l3.66,2.11c.42.24,1.11.24,1.53,0l4.35-2.51c.42-.24.42-.64,0-.88ZM131.12,109.26l-3.66-2.11c-.42-.24-1.11-.24-1.53,0l-4.35,2.51c-.42.24-.42.64,0,.88l3.66,2.11c.42.24,1.11.24,1.53,0l4.35-2.51c.42-.24.42-.64,0-.88ZM138.15,105.2l-3.66-2.11c-.42-.24-1.11-.24-1.53,0l-4.35,2.51c-.42.24-.42.64,0,.88l3.66,2.11c.42.24,1.11.24,1.53,0l4.35-2.51c.42-.24.42-.64,0-.88ZM145.18,101.14l-3.66-2.11c-.42-.24-1.11-.24-1.53,0l-4.35,2.51c-.42.24-.42.64,0,.88l3.66,2.11c.42.24,1.11.24,1.53,0l4.35-2.51c.42-.24.42-.64,0-.88ZM151.59,104.84l-3.66-2.11c-.42-.24-1.11-.24-1.53,0l-4.35,2.51c-.42.24-.42.64,0,.88l3.66,2.11c.42.24,1.11.24,1.53,0l4.35-2.51c.42-.24.42-.64,0-.88ZM157.82,108.26l-3.58-2.07c-.35-.2-.91-.2-1.27,0l-6.15,3.5c-.3.17-.78.17-1.07,0l-4.82-2.78c-.53-.3-1.38-.3-1.9,0l-11.03,6.37c-.53.3-.53.8,0,1.1l9.62,5.55c.53.3,1.38.3,1.9,0l18.3-10.57c.53-.3.53-.8,0-1.1Z"/>
            </g>
          </g>
          <polygon class="cls-54" points="147.54 90.36 43.56 150.4 23.99 60.04 127.98 0 147.54 90.36"/>
          <g>
            <polygon class="cls-34" points="147.54 90.36 43.56 150.4 43.56 67.2 147.54 7.16 147.54 90.36"/>
            <polygon class="cls-51" points="147.54 8.05 43.56 68.08 43.56 61.78 147.54 1.74 147.54 8.05"/>
            <g class="cls-61">
              <path class="cls-40" d="M146.36,3.64c-.16-.09-.37-.07-.59.05l-2.83,1.63c-.37.21-.66.68-.66,1.05v2.83c0,.19.08.34.21.42.06.04.14.06.22.06.11,0,.24-.04.37-.11l2.83-1.63c.37-.21.66-.68.66-1.05v-2.83c0-.19-.08-.34-.21-.42ZM146.3,6.89c0,.28-.24.65-.52.81l-2.83,1.63c-.13.07-.24.09-.31.05-.07-.04-.08-.13-.08-.18v-2.83c0-.28.24-.65.52-.81l2.83-1.63c.08-.05.16-.07.23-.07.03,0,.06,0,.08.02.07.04.08.13.08.18v2.83Z"/>
              <path class="cls-40" d="M140.96,6.47l-2.83,1.63c-.37.21-.66.68-.66,1.05v2.83c0,.19.08.34.21.42.07.04.14.06.22.06.11,0,.24-.04.37-.11l2.83-1.63c.37-.21.66-.68.66-1.05v-2.83c0-.19-.08-.34-.21-.42-.16-.09-.37-.07-.59.05ZM141.48,9.67c0,.28-.24.65-.52.81l-2.83,1.63c-.13.07-.24.09-.31.05-.07-.04-.08-.13-.08-.18v-2.83c0-.28.24-.65.52-.81l2.83-1.63c.08-.05.16-.07.23-.07.03,0,.06,0,.08.02.07.04.08.13.08.18v2.83Z"/>
              <path class="cls-40" d="M136.14,9.26l-2.83,1.63c-.37.21-.66.68-.66,1.05v2.83c0,.19.08.34.21.42.06.04.14.06.22.06.11,0,.24-.04.36-.11l2.83-1.63c.37-.21.66-.68.66-1.05v-2.83c0-.19-.08-.34-.21-.42-.16-.09-.37-.07-.58.05ZM136.66,12.46c0,.28-.24.65-.52.81l-2.83,1.63c-.13.07-.24.09-.31.05-.07-.04-.08-.13-.08-.18v-2.83c0-.28.24-.65.52-.81l2.83-1.63c.08-.05.16-.07.23-.07.03,0,.06,0,.08.02.07.04.07.13.07.18v2.83Z"/>
            </g>
          </g>
          <g>
            <path class="cls-58" d="M147.87,85.8c-.09-.11-.22-.16-.36-.15l-2.89.33c-.17.02-.31.15-.35.32-.02.1,0,.2.05.28.03.06.08.11.15.15l.59.34-98.08,56.63c.06.28.11.56.17.83l98.72-57,.92.53c.1.06.23.07.34.03.11-.04.2-.13.24-.25l.58-1.67c.04-.13.02-.28-.07-.38Z"/>
            <g>
              <path class="cls-13" d="M133.14,55.41l-4.72.22c-.83.04-1.81.56-2.67,1.42l-9.61,9.54c-.6.6-1.26,1.04-1.9,1.26l-8.51,2.97c-.76.27-1.56.84-2.24,1.62l-10.99,12.55c-.69.78-1.49,1.36-2.26,1.63l-10.82,3.71c-.67.23-1.38.71-2.01,1.36l-8.33,8.58c-.78.8-1.67,1.34-2.46,1.47l-8.75,1.53c-.99.17-2.11.95-2.98,2.07l-7.91,10.14v28.62l98.86-57.08v-37.4l-5.58,1c-.74.13-1.55.6-2.29,1.31l-2.21,2.13c-.85.82-1.8,1.31-2.6,1.35Z"/>
              <path class="cls-16" d="M143.18,65.8l-4.44,4.72c-.83.88-1.8,1.46-2.64,1.57l-13.81,1.86c-.71.1-1.51.52-2.25,1.18l-8.64,7.82c-.58.52-1.2.9-1.78,1.08l-10.96,3.41c-.81.25-1.67.86-2.39,1.7l-10.99,12.76c-.6.7-1.31,1.25-2,1.55l-8.53,3.77c-.6.26-1.21.71-1.76,1.28l-9.61,10.07c-.73.76-1.56,1.29-2.32,1.48l-8.12,2.01v25.48l98.86-57.08v-27.38l-6.13,1.17c-.81.16-1.72.72-2.5,1.55Z"/>
              <path class="cls-44" d="M150.26,74.46l-4.88,4.39c-.74.66-1.54,1.08-2.24,1.17l-4.88.63c-.75.1-1.6.56-2.37,1.29l-6.64,6.28c-.8.76-1.69,1.23-2.46,1.3l-8.01.73c-.91.08-1.98.73-2.88,1.73l-14.67,16.47c-.88.99-1.94,1.63-2.84,1.72l-5.88.62c-.86.09-1.85.67-2.71,1.58l-10.57,11.22c-.88.94-1.91,1.52-2.79,1.58l-6.22.43c-.74.05-1.61.48-2.4,1.2l-8.06,7.31v17.36l98.86-57.08v-22.73l-6.45,1.7c-.62.16-1.28.55-1.9,1.1Z"/>
              <path class="cls-25" d="M156.61,87.73l-4.88,4.38c-.75.68-1.57,1.1-2.28,1.18l-4.62.52c-.85.1-1.84.67-2.68,1.56l-3.98,4.21c-.97,1.02-2.11,1.62-3.02,1.58l-10.07-.46c-.97-.04-2.19.63-3.19,1.77l-11.5,13.07c-.92,1.05-2.04,1.71-2.98,1.77l-8.57.49c-.85.05-1.85.6-2.73,1.49l-10.71,10.96c-.78.8-1.68,1.33-2.47,1.46l-6.46,1.07c-.69.11-1.47.53-2.18,1.18l-8.2,7.44v13.74l98.86-57.08v-13.19l-6.46,1.77c-.61.17-1.26.55-1.87,1.09Z"/>
              <path class="cls-14" d="M162.57,96.49l-3.41,2.44c-1.04.74-2.09,1.3-3.11,1.64l-3.57,1.21c-1.3.44-2.65,1.23-3.95,2.29l-2.98,2.45c-1.27,1.04-2.59,1.82-3.86,2.26l-9.42,3.3c-1.16.41-2.36,1.09-3.53,2l-10.72,8.38c-1.38,1.08-2.81,1.83-4.15,2.19l-6.57,1.76c-1.44.38-2.97,1.22-4.44,2.42l-9.55,7.81c-1.4,1.15-2.87,1.96-4.25,2.37l-3.65,1.07c-1.77.52-3.66,1.71-5.38,3.38l-6.94,6.76-.05,8.94,98.86-57.08.05-8.72-5.49,1.25c-1.26.29-2.6.93-3.92,1.88Z"/>
            </g>
            <g>
              <path class="cls-58" d="M77.54,161.43l-30.11-17.38v-72.76c0-.22-.18-.4-.4-.4s-.4.18-.4.4v73c0,.14.08.28.2.35l30.31,17.5c.06.04.13.05.2.05.14,0,.27-.07.35-.2.11-.19.05-.44-.15-.55Z"/>
              <path class="cls-58" d="M48.45,70.79l-1.16-1.34c-.09-.1-.23-.16-.37-.13-.14.02-.25.11-.31.24l-1.16,2.67c-.07.16-.03.35.1.46.08.07.17.1.27.1.07,0,.14-.02.2-.05l2.31-1.34c.1-.06.18-.16.2-.28.02-.12-.01-.24-.09-.33Z"/>
              <path class="cls-58" d="M79.07,162.54l-.33-1.74c-.03-.14-.12-.25-.25-.3-.13-.05-.27-.03-.39.05l-2.34,1.74c-.14.1-.2.29-.14.45.03.1.1.17.18.22.06.03.13.05.2.05h2.67c.12,0,.23-.05.31-.15.08-.09.11-.21.08-.33Z"/>
            </g>
          </g>
          <g class="cls-59">
            <g>
              <polygon class="cls-20" points="69.24 66.72 64.38 69.53 64.38 68.48 69.24 65.68 69.24 66.72"/>
              <polygon class="cls-20" points="73.81 64.09 70.65 65.91 70.65 64.87 73.81 63.04 73.81 64.09"/>
              <polygon class="cls-20" points="81.78 59.49 75.22 63.27 75.22 62.23 81.78 58.44 81.78 59.49"/>
              <polygon class="cls-20" points="90.68 54.35 83.18 58.68 83.18 57.63 90.68 53.3 90.68 54.35"/>
              <polygon class="cls-20" points="92.09 52.49 92.09 53.54 99.58 49.21 99.58 48.16 92.09 52.49"/>
              <polygon class="cls-20" points="104.11 46.59 100.99 48.4 100.99 47.35 104.11 45.55 104.11 46.59"/>
              <polygon class="cls-20" points="113.11 41.4 105.52 45.78 105.52 44.73 113.11 40.35 113.11 41.4"/>
              <polygon class="cls-20" points="71.94 68.01 64.38 72.37 64.38 71.32 71.94 66.96 71.94 68.01"/>
              <polygon class="cls-20" points="76.51 65.37 73.34 67.2 73.34 66.15 76.51 64.32 76.51 65.37"/>
              <polygon class="cls-20" points="81.78 62.33 77.91 64.56 77.91 63.51 81.78 61.28 81.78 62.33"/>
              <polygon class="cls-20" points="87.48 59.04 83.18 61.52 83.18 60.47 87.48 57.99 87.48 59.04"/>
              <polygon class="cls-20" points="88.88 57.18 88.88 58.22 95.8 54.23 95.8 53.19 88.88 57.18"/>
              <polygon class="cls-20" points="101.85 50.74 97.2 53.42 97.2 52.38 101.85 49.69 101.85 50.74"/>
              <polygon class="cls-20" points="113.11 44.24 103.25 49.93 103.25 48.88 113.11 43.19 113.11 44.24"/>
              <polygon class="cls-20" points="69.24 72.4 64.38 75.21 64.38 74.16 69.24 71.36 69.24 72.4"/>
              <polygon class="cls-20" points="73.81 69.77 70.65 71.59 70.65 70.55 73.81 68.72 73.81 69.77"/>
              <polygon class="cls-20" points="81.78 65.17 75.22 68.95 75.22 67.91 81.78 64.12 81.78 65.17"/>
              <polygon class="cls-20" points="90.68 60.03 83.18 64.36 83.18 63.31 90.68 58.98 90.68 60.03"/>
              <polygon class="cls-20" points="92.09 58.17 92.09 59.22 99.58 54.89 99.58 53.84 92.09 58.17"/>
              <polygon class="cls-20" points="104.11 52.27 100.99 54.08 100.99 53.03 104.11 51.23 104.11 52.27"/>
              <polygon class="cls-20" points="113.11 47.08 105.52 51.46 105.52 50.41 113.11 46.03 113.11 47.08"/>
              <polygon class="cls-20" points="71.94 73.69 64.38 78.05 64.38 77 71.94 72.64 71.94 73.69"/>
              <polygon class="cls-20" points="76.51 71.05 73.34 72.88 73.34 71.83 76.51 70 76.51 71.05"/>
              <polygon class="cls-20" points="81.78 68.01 77.91 70.24 77.91 69.19 81.78 66.96 81.78 68.01"/>
              <polygon class="cls-20" points="87.48 64.71 83.18 67.19 83.18 66.15 87.48 63.67 87.48 64.71"/>
              <polygon class="cls-20" points="88.88 62.86 88.88 63.9 95.8 59.91 95.8 58.87 88.88 62.86"/>
              <polygon class="cls-20" points="101.85 56.42 97.2 59.1 97.2 58.06 101.85 55.37 101.85 56.42"/>
              <polygon class="cls-20" points="113.11 49.91 103.25 55.61 103.25 54.56 113.11 48.87 113.11 49.91"/>
              <polygon class="cls-20" points="69.24 78.08 64.38 80.89 64.38 79.84 69.24 77.04 69.24 78.08"/>
              <polygon class="cls-20" points="73.81 75.44 70.65 77.27 70.65 76.23 73.81 74.4 73.81 75.44"/>
              <polygon class="cls-20" points="81.78 70.85 75.22 74.63 75.22 73.59 81.78 69.8 81.78 70.85"/>
              <polygon class="cls-20" points="90.68 65.71 83.18 70.03 83.18 68.99 90.68 64.66 90.68 65.71"/>
              <polygon class="cls-20" points="92.09 63.85 92.09 64.89 99.58 60.57 99.58 59.52 92.09 63.85"/>
              <polygon class="cls-20" points="104.11 57.95 100.99 59.75 100.99 58.71 104.11 56.9 104.11 57.95"/>
              <polygon class="cls-20" points="113.11 52.75 105.52 57.14 105.52 56.09 113.11 51.71 113.11 52.75"/>
              <polygon class="cls-20" points="71.94 79.37 64.38 83.73 64.38 82.68 71.94 78.32 71.94 79.37"/>
              <polygon class="cls-20" points="76.51 76.73 73.34 78.55 73.34 77.51 76.51 75.68 76.51 76.73"/>
              <polygon class="cls-20" points="81.78 73.69 77.91 75.92 77.91 74.87 81.78 72.64 81.78 73.69"/>
              <polygon class="cls-20" points="87.48 70.39 83.18 72.87 83.18 71.83 87.48 69.35 87.48 70.39"/>
              <polygon class="cls-20" points="88.88 68.54 88.88 69.58 95.8 65.59 95.8 64.55 88.88 68.54"/>
              <polygon class="cls-20" points="101.85 62.1 97.2 64.78 97.2 63.73 101.85 61.05 101.85 62.1"/>
              <polygon class="cls-20" points="113.11 55.59 103.25 61.29 103.25 60.24 113.11 54.55 113.11 55.59"/>
            </g>
            <g>
              <path class="cls-43" d="M126.67,40.14l-5.01-4c1.52-1.99,3.13-3.43,5.01-4.52v8.52Z"/>
              <path class="cls-5" d="M126.67,40.14l-8.1,7.31c-1.16-2.91.05-7.34,3.09-11.31l5.01,4Z"/>
              <path class="cls-20" d="M126.67,40.14v8.52c-3.76,2.17-6.94,1.7-8.1-1.21l8.1-7.31Z"/>
              <path class="cls-55" d="M126.67,40.14l6.89,1.03c-1.66,3.24-4.07,5.86-6.89,7.49v-8.52Z"/>
              <path class="cls-56" d="M126.67,40.14l8.1-7.31c.87,2.18.45,5.1-1.21,8.34l-6.89-1.03Z"/>
              <path class="cls-38" d="M126.67,40.14v-8.52c3.76-2.17,6.94-1.7,8.1,1.21l-8.1,7.31Z"/>
            </g>
            <g>
              <path class="cls-43" d="M147.66,28.01l-3.68,9.86c-1.71.17-2.94-.28-3.84-1.42l7.52-8.43Z"/>
              <path class="cls-5" d="M147.66,28.01l4.09,5.16c-2.49,2.79-5.21,4.44-7.77,4.7l3.68-9.86Z"/>
              <path class="cls-38" d="M147.66,28.01l-7.52,8.43c-2.26-2.85-.72-8.93,3.43-13.59,4.15-4.66,9.35-6.12,11.61-3.28.9,1.14,1.21,2.63.97,4.64l-8.49,3.79Z"/>
              <path class="cls-20" d="M147.66,28.01l8.49-3.79c-.37,3.03-1.91,6.16-4.4,8.95l-4.09-5.16Z"/>
            </g>
          </g>
          <g>
            <path class="cls-29" d="M1.06,117.1v40.54c-.04,2.74,1.75,5.49,5.37,7.58,7.16,4.13,18.77,4.13,25.92,0,3.54-2.04,5.33-4.71,5.37-7.39v-40.54l-36.66-.19Z"/>
            <path class="cls-29" d="M2.15,117.11h-1.09s0,40.53,0,40.53c-.02,1.24.35,2.48,1.09,3.67v-44.2Z"/>
            <path class="cls-26" d="M33.58,117.27l-19.4-.1v50.7c6.23,1.06,13.25.18,18.17-2.66.44-.25.85-.52,1.23-.79v-47.16Z"/>
            <path class="cls-33" d="M30.65,117.26v48.82c.59-.27,1.16-.55,1.7-.86,3.54-2.04,5.33-4.71,5.37-7.39v-40.54l-7.07-.04Z"/>
            <g>
              <path class="cls-23" d="M19.38,117.11l11.24,8.43c-4.81,2.15-10.54,2.77-16.38,1.77l5.14-10.2Z"/>
              <path class="cls-47" d="M32.31,109.58c4.62,2.67,6.65,6.67,4.7,10.54-1.14,2.25-3.18,3.99-6.39,5.42l-11.24-8.43-8.64-.73-8.99-2.29c2.84-5.63,13.03-8.85,22.77-7.19,3.05.52,5.69,1.46,7.79,2.67Z"/>
              <path class="cls-6" d="M19.38,117.11l-5.14,10.2c-3.08-.53-5.72-1.42-7.83-2.64-1.89-1.09-3.35-2.43-4.32-4l17.29-3.56Z"/>
              <path class="cls-6" d="M19.38,117.11l-17.29,3.56c-1.37-2.21-1.48-4.32-.34-6.57l17.63,3.01Z"/>
            </g>
          </g>
          <path class="cls-11" d="M15.37,127.04c-1.35-.18-2.61-.42-3.85-.74-4.34-1.14-9.39-3.75-10.41-7.98.4,2.98,3.63,6.95,10.19,8.77,13.48,3.78,25.58-2.39,26.32-8.77-1.42,6.35-12.23,10-22.25,8.72Z"/>
          <g>
            <path class="cls-26" d="M41.11,145.27v35.21c3.56.06,7.16-.68,9.89-2.25,2.58-1.49,3.89-3.44,3.92-5.39v-27.49l-13.8-.07Z"/>
            <path class="cls-33" d="M31.14,145.22v32.41c.29.21.6.4.93.6,3.16,1.82,7.51,2.54,11.6,2.16v-35.1l-12.54-.07Z"/>
            <path class="cls-26" d="M53.42,145.34v30.97c.97-1.09,1.48-2.28,1.5-3.47v-27.49h-1.5Z"/>
            <path class="cls-29" d="M32.17,145.22l-4.02-.02v27.49c-.03,2,1.27,4.01,3.92,5.53.03.02.07.04.1.05v-33.06Z"/>
            <g>
              <path class="cls-15" d="M41.53,145.17l2.13,7.63c-4.36.4-8.4-.36-11.53-2.17l9.4-5.46Z"/>
              <path class="cls-23" d="M50.93,139.71c4.18,2.41,5.16,5.93,2.5,8.97l-11.9-3.51,9.4-5.46Z"/>
              <path class="cls-23" d="M53.43,148.68c-1.99,2.28-5.41,3.72-9.77,4.12l-2.13-7.63,11.9,3.51Z"/>
              <path class="cls-6" d="M41.53,145.17l-9.4,5.46c-4.18-2.41-5.16-5.93-2.5-8.97l11.9,3.51Z"/>
              <path class="cls-57" d="M43.57,137.54l-2.04,7.63-11.9-3.51c1.47-1.68,3.79-2.93,6.56-3.61,2.24-.56,4.78-.75,7.38-.51Z"/>
              <path class="cls-8" d="M50.93,139.71l-9.4,5.46,2.04-7.63c2.91.27,5.27.96,7.36,2.17Z"/>
            </g>
          </g>
          <path class="cls-53" d="M54.85,145.84c-.04.22-.12.55-.28.93-.3.79-1.02,1.78-2.12,2.69-1.09.93-2.6,1.7-4.31,2.24-1.71.54-3.62.84-5.53.93-1.91.11-3.84-.02-5.59-.39-1.75-.37-3.35-.93-4.61-1.62-1.27-.67-2.22-1.42-2.79-2.04-.58-.62-.81-1.05-.81-1.05,0,0,.2.44.75,1.1.54.65,1.45,1.5,2.72,2.22,1.26.74,2.86,1.4,4.65,1.79,1.79.4,3.75.55,5.7.46,1.95-.11,3.89-.43,5.63-1.01,1.75-.57,3.26-1.45,4.36-2.43,1.11-.98,1.76-2.06,2.02-2.87.14-.4.2-.73.23-.96.03-.23.03-.35.03-.35,0,0,0,.12-.05.34Z"/>
          <g>
            <g class="cls-62">
              <path class="cls-38" d="M163.56,58.54l-.03-9.24-2.31-1.34.03,9.24c0,.55.2.93.51,1.12l2.31,1.34c-.31-.18-.51-.57-.51-1.12Z"/>
              <path class="cls-21" d="M173.07,39.71c-.32-.18-.76-.16-1.24.12l-8.87,5.12c-.96.56-1.74,1.9-1.74,3.01l2.31,1.34c0-1.11.78-2.46,1.74-3.01l8.87-5.12c.48-.28.92-.31,1.24-.12l-2.31-1.34Z"/>
              <path class="cls-9" d="M173.07,39.71c-.32-.18-.76-.16-1.24.12l2.31,1.34c.48-.28.92-.31,1.24-.12l-2.31-1.34Z"/>
              <path class="cls-9" d="M162.96,44.95c-.96.56-1.74,1.9-1.74,3.01l2.31,1.34c0-1.11.78-2.46,1.74-3.01l-2.31-1.34Z"/>
              <path class="cls-18" d="M175.89,42.17c0-1.11-.79-1.55-1.75-1l-8.87,5.12c-.96.56-1.74,1.9-1.74,3.01l.03,9.24c0,1.11.79,1.55,1.75.99l8.87-5.12c.96-.56,1.74-1.9,1.74-3.01l-.03-9.24Z"/>
            </g>
            <g class="cls-62">
              <path class="cls-49" d="M159.32,47.65c-.32-.18-.75-.16-1.24.12l-31.8,18.36c-.96.56-1.74,1.9-1.74,3.01l.03,9.24c0,.55.2.94.51,1.12l2.31,1.34c-.31-.18-.51-.57-.51-1.12l-.03-9.24c0-1.11.77-2.45,1.74-3.01l31.8-18.36c.48-.28.92-.31,1.24-.12l-2.31-1.34Z"/>
              <path class="cls-5" d="M126.28,66.12c-.96.56-1.74,1.9-1.74,3.01l2.31,1.34c0-1.11.77-2.45,1.74-3.01l-2.31-1.34Z"/>
              <path class="cls-9" d="M159.32,47.65c-.32-.18-.75-.16-1.24.12l2.31,1.34c.48-.28.92-.31,1.24-.12l-2.31-1.34Z"/>
              <path class="cls-30" d="M162.13,50.11c0-1.11-.78-1.55-1.75-1l-31.8,18.36c-.96.56-1.74,1.9-1.74,3.01l.03,9.24c0,1.11.78,1.55,1.75,1l31.8-18.36c.96-.56,1.74-1.9,1.74-3.01l-.03-9.24Z"/>
            </g>
            <path class="cls-35" d="M128.38,67.51c-.36.26-.63.57-.83.86-.41.6-.58,1.15-.65,1.52-.07.38-.05.58-.05.58,0,0,0-.21.08-.58.08-.37.29-.9.71-1.47.21-.28.48-.56.83-.8.57-.34,12.04-6.39,31.92-18.53-18.02,9.82-30.8,17.61-32,18.4Z"/>
            <path class="cls-3" d="M165.49,45.99c-.79.47-1.44,1.16-1.75,2.02-.08.22-.14.45-.18.69-.03.19-.03.34-.03.44,0,.1,0,.16,0,.16,0,0,0-.22.11-.58.06-.24.18-.51.33-.78.41-.71,1.03-1.28,1.73-1.7,2.1-1.26,8.43-5.07,8.43-5.07,0,0-6.45,3.51-8.65,4.82Z"/>
          </g>
          <circle class="cls-10" cx="165.24" cy="46.43" r="5.9"/>
          <g class="cls-60">
            <g>
              <path class="cls-31" d="M182.23,64.62l-6.11,3.53v.85l6.11-3.53v-.85ZM189.49,60.43l-6.11,3.53v.85l6.11-3.53v-.85ZM193.18,58.3l-2.55,1.47v.85l2.55-1.47v-.85ZM194.33,57.63v.85l1.17-.67v-.85l-1.17.67ZM179.62,68.44l-3.5,2.02v.85l3.5-2.02v-.85ZM186.4,64.53l-5.63,3.25v.85l5.63-3.25v-.85ZM187.55,64.72l3.79-2.19v-.85l-3.79,2.19v.85ZM192.48,61.87l3.01-1.74v-.85l-3.01,1.74v.85ZM182.23,69.25l-6.11,3.53v.85l6.11-3.53v-.85ZM189.49,65.06l-6.11,3.53v.85l6.11-3.53v-.85ZM193.18,62.93l-2.55,1.47v.85l2.55-1.47v-.85ZM194.33,63.12l1.17-.67v-.85l-1.17.67v.85ZM179.62,73.07l-3.5,2.02v.85l3.5-2.02v-.85ZM180.77,73.26l5.63-3.25v-.85l-5.63,3.25v.85ZM187.55,69.35l3.79-2.19v-.85l-3.79,2.19v.85ZM192.48,66.5l3.01-1.74v-.85l-3.01,1.74v.85ZM182.23,73.88l-6.11,3.53v.85l6.11-3.53v-.85ZM189.49,69.69l-6.11,3.53v.85l6.11-3.53v-.85ZM190.64,69.88l2.55-1.47v-.85l-2.55,1.47v.85ZM194.33,67.75l1.17-.67v-.85l-1.17.67v.85ZM176.12,80.57l3.5-2.02v-.85l-3.5,2.02v.85ZM180.77,77.89l5.63-3.25v-.85l-5.63,3.25v.85ZM187.55,73.98l3.79-2.19v-.85l-3.79,2.19v.85ZM192.48,71.13l3.01-1.74v-.85l-3.01,1.74v.85Z"/>
              <path class="cls-31" d="M182.17,83.13l-6.11,3.53v.85l6.11-3.53v-.85ZM188.76,79.33l-5.44,3.14v.85l5.44-3.14v-.85ZM179.56,86.95l-3.5,2.02v.85l3.5-2.02v-.85ZM186.34,83.04l-5.63,3.25v.85l5.63-3.25v-.85ZM187.49,83.23l1.28-.74v-.85l-1.28.74v.85ZM182.17,87.76l-6.11,3.53v.85l6.11-3.53v-.85ZM188.76,83.96l-5.44,3.14v.85l5.44-3.14v-.85ZM179.56,91.58l-3.5,2.02v.85l3.5-2.02v-.85ZM180.71,91.77l5.63-3.25v-.85l-5.63,3.25v.85ZM187.49,87.86l1.28-.74v-.85l-1.28.74v.85ZM182.17,92.39l-6.11,3.53v.85l6.11-3.53v-.85ZM188.76,88.59l-5.44,3.14v.85l5.44-3.14v-.85ZM176.06,99.09l3.5-2.02v-.85l-3.5,2.02v.85ZM180.71,96.4l5.63-3.25v-.85l-5.63,3.25v.85ZM187.49,92.49l1.28-.74v-.85l-1.28.74v.85Z"/>
            </g>
            <g>
              <path class="cls-31" d="M16.86,68.76l-3.5,2.02v.85l3.5-2.02v-.85ZM18.01,68.95l2.95-1.7v-.85l-2.95,1.7v.85ZM22.1,66.59l3.79-2.19v-.85l-3.79,2.19v.85ZM27.04,63.74l8.04-4.64v-.85l-8.04,4.64v.85ZM19.47,69.57l-6.11,3.53v.85l6.11-3.53v-.85ZM24.04,66.93l-3.43,1.98v.85l3.43-1.98v-.85ZM25.19,67.12l2.55-1.47v-.85l-2.55,1.47v.85ZM28.88,64.99l6.19-3.57v-.85l-6.19,3.57v.85ZM13.36,76.26l3.5-2.02v-.85l-3.5,2.02v.85ZM18.01,73.58l2.95-1.7v-.85l-2.95,1.7v.85ZM22.1,71.22l3.79-2.19v-.85l-3.79,2.19v.85ZM27.04,68.37l8.04-4.64v-.85l-8.04,4.64v.85Z"/>
              <path class="cls-31" d="M24.61,54.65l-2.14,1.24v.85l2.14-1.24v-.85ZM25.76,54.84l3.71-2.14v-.85l-3.71,2.14v.85ZM30.62,52.04l4.37-2.52v-.85l-4.37,2.52v.85ZM27.22,55.46l-4.75,2.74v.85l4.75-2.74v-.85ZM32.56,52.38l-4.19,2.42v.85l4.19-2.42v-.85ZM33.71,52.57l1.32-.76v-.85l-1.32.76v.85ZM22.47,61.37l2.14-1.24v-.85l-2.14,1.24v.85ZM25.76,59.47l3.71-2.14v-.85l-3.71,2.14v.85ZM30.62,56.67l4.46-2.57v-.85l-4.46,2.57v.85Z"/>
            </g>
            <path class="cls-31" d="M13.59,94.69l-3.6,2.08v.88l3.6-2.08v-.88ZM14.77,94.89l5.79-3.34v-.88l-5.79,3.34v.88ZM21.74,90.86l3.89-2.25v-.88l-3.89,2.25v.88ZM26.82,87.93l8.26-4.77v-.88l-8.26,4.77v.88ZM16.28,95.52l-6.28,3.63v.88l6.28-3.63v-.88ZM23.74,91.21l-6.28,3.63v.88l6.28-3.63v-.88ZM24.92,91.41l2.62-1.51v-.88l-2.62,1.51v.88ZM28.71,89.22l6.37-3.68v-.88l-6.37,3.68v.88ZM9.99,102.4l3.6-2.08v-.88l-3.6,2.08v.88ZM14.77,99.65l5.79-3.34v-.88l-5.79,3.34v.88ZM21.74,95.62l3.89-2.25v-.88l-3.89,2.25v.88ZM26.82,92.69l8.26-4.77v-.88l-8.26,4.77v.88Z"/>
            <path class="cls-31" d="M161.12,12.24l3.82-2.2v-.88l-3.82,2.2v.88ZM166.11,9.35l2.66-1.54v-.88l-2.66,1.54v.88ZM169.95,7.14l4.48-2.59v-.88l-4.48,2.59v.88ZM168.11,9.7l-6.97,4.03v.88l6.97-4.03v-.88ZM169.29,9.9l1.38-.8v-.88l-1.38.8v.88ZM171.85,8.42l2.58-1.49v-.88l-2.58,1.49v.88ZM161.18,16.96l8.83-5.1v-.88l-8.83,5.1v.88ZM171.18,11.18l3.24-1.87v-.88l-3.24,1.87v.88Z"/>
            <path class="cls-31" d="M167.35,18.59l-6.28,3.63v.88l6.28-3.63v-.88ZM174.81,14.29l-6.28,3.63v.88l6.28-3.63v-.88ZM178.61,12.09l-2.62,1.51v.88l2.62-1.51v-.88ZM179.79,11.41v.88l4.37-2.52v-.88l-4.37,2.53ZM164.67,22.52l-3.6,2.08v.88l3.6-2.08v-.88ZM171.64,18.5l-5.79,3.34v.88l5.79-3.34v-.88ZM172.81,18.69l3.89-2.25v-.88l-3.89,2.25v.88ZM177.89,15.77l6.27-3.62v-.88l-6.27,3.62v.88ZM167.35,23.35l-6.28,3.63v.88l6.28-3.63v-.88ZM174.81,19.05l-6.28,3.63v.88l6.28-3.63v-.88ZM178.61,16.85l-2.62,1.51v.88l2.62-1.51v-.88ZM179.79,17.05l4.37-2.52v-.88l-4.37,2.53v.88ZM164.67,27.28l-3.6,2.08v.88l3.6-2.08v-.88ZM165.84,27.48l5.79-3.34v-.88l-5.79,3.34v.88ZM172.81,23.45l3.89-2.25v-.88l-3.89,2.25v.88ZM177.89,20.53l6.27-3.62v-.88l-6.27,3.62v.88ZM167.35,28.11l-6.28,3.63v.88l6.28-3.63v-.88ZM174.81,23.8l-6.28,3.63v.88l6.28-3.63v-.88ZM175.99,24l2.62-1.51v-.88l-2.62,1.51v.88ZM179.79,21.81l4.37-2.53v-.88l-4.37,2.53v.88ZM161.07,35l3.6-2.08v-.88l-3.6,2.08v.88ZM165.84,32.24l5.79-3.34v-.88l-5.79,3.34v.88ZM172.81,28.21l3.89-2.25v-.88l-3.89,2.25v.88ZM177.89,25.29l6.27-3.62v-.88l-6.27,3.62v.88Z"/>
          </g>
          <g>
            <g>
              <path class="cls-45" d="M200.03,116.96v33.37c-.01.66.42,1.33,1.3,1.83,1.73,1,4.53,1,6.26,0,.85-.49,1.29-1.14,1.3-1.78v-33.37l-8.85-.05Z"/>
              <path class="cls-6" d="M207.57,115.14c-.69-.4-1.47-.63-2.43-.72-1.93-.18-3.73.36-4.61,1.36-.88,1.01-.55,2.17.83,2.97,1.04.6,2.37.85,3.81.72,1.44-.13,2.57-.61,3.23-1.36.88-1.01.55-2.17-.83-2.97Z"/>
            </g>
            <g>
              <path class="cls-26" d="M191.97,125.43v29.55c-.01.66.42,1.33,1.3,1.83,1.73,1,4.53,1,6.26,0,.85-.49,1.29-1.14,1.3-1.78v-29.55l-8.85-.05Z"/>
              <path class="cls-23" d="M199.51,123.62c-.69-.4-1.47-.63-2.43-.72-1.93-.18-3.73.36-4.61,1.36-.88,1.01-.55,2.17.83,2.97,1.04.6,2.37.85,3.81.72,1.44-.13,2.57-.61,3.23-1.36.88-1.01.55-2.17-.83-2.97Z"/>
            </g>
            <g>
              <path class="cls-42" d="M183.92,133.78v25.85c-.01.66.42,1.33,1.3,1.83,1.73,1,4.53,1,6.26,0,.85-.49,1.29-1.14,1.3-1.78v-25.85l-8.85-.05Z"/>
              <path class="cls-46" d="M191.45,131.96c-.69-.4-1.47-.63-2.43-.72-1.93-.18-3.73.36-4.61,1.36-.88,1.01-.55,2.17.83,2.97,1.04.6,2.37.85,3.81.72,1.44-.13,2.57-.61,3.23-1.36.88-1.01.55-2.17-.83-2.97Z"/>
            </g>
            <g>
              <path class="cls-37" d="M175.73,143.46v20.9c-.01.66.42,1.33,1.3,1.83,1.73,1,4.53,1,6.26,0,.85-.49,1.29-1.14,1.3-1.78v-20.9l-8.85-.05Z"/>
              <path class="cls-15" d="M183.27,141.65c-.69-.4-1.47-.63-2.43-.72-1.93-.18-3.73.36-4.61,1.36-.88,1.01-.55,2.17.83,2.97,1.04.6,2.37.85,3.81.72,1.44-.13,2.57-.61,3.23-1.36.88-1.01.55-2.17-.83-2.97Z"/>
            </g>
            <g>
              <path class="cls-42" d="M167.55,152.6v16.49c-.01.66.42,1.33,1.3,1.83,1.73,1,4.53,1,6.26,0,.85-.49,1.29-1.14,1.3-1.78v-16.49l-8.85-.05Z"/>
              <path class="cls-46" d="M175.08,150.78c-.69-.4-1.47-.63-2.43-.72-1.93-.18-3.73.36-4.61,1.36-.88,1.01-.55,2.17.83,2.97,1.04.6,2.37.85,3.81.72,1.44-.13,2.57-.61,3.23-1.36.88-1.01.55-2.17-.83-2.97Z"/>
            </g>
          </g>
          <g class="cls-62">
            <path class="cls-41" d="M94.6,184.15s-.05-.09-.08-.13c-.03-.03-.06-.06-.09-.08l-3.86-2.23c-.06-.04-.12-.04-.15-.02l-1.82,1.06c.59,1.23,2.94,3.14,4.17,3.99l1.82-1.06s.06-.07.06-.14v-1.23c0-.05-.01-.11-.03-.16Z"/>
            <path class="cls-28" d="M92.6,185l-3.86-2.23c-.12-.07-.22-.01-.22.12v1.23c0,.14.09.3.21.37l3.86,2.23c.12.07.21.01.22-.12v-1.23c0-.14-.09-.31-.21-.37Z"/>
          </g>
          <g>
            <g>
              <path class="cls-18" d="M85.57,150.62l-11.02,19.34,6.21,3.54s11.25-19.71,11.25-19.71c-2.34-.51-4.8-1.6-6.44-3.17Z"/>
              <path class="cls-32" d="M90.78,162.09l-11.53-6.58-23.3,40.89,11.53,6.58s23.33-40.88,23.33-40.88h-.03Z"/>
            </g>
            <g>
              <g>
                <path class="cls-38" d="M122.28,95.83l-6.08-3.49c4.21,2.41,6.82,7.61,6.82,14.99,0,14.68-10.31,32.54-22.98,39.81-6.29,3.61-12,3.94-16.16,1.56l6.08,3.49c4.15,2.38,9.86,2.05,16.16-1.56,12.67-7.27,22.98-25.12,22.98-39.81,0-7.39-2.61-12.58-6.82-14.99h0Z"/>
                <path class="cls-39" d="M102.48,148.53c12.67-7.27,22.98-25.12,22.98-39.81,0-6.77-2.2-11.7-5.81-14.33,4.79,2.13,7.83,7.54,7.83,15.5,0,14.68-10.31,32.54-22.98,39.81-6.82,3.91-12.95,3.97-17.17.89,4.05,1.8,9.35,1.27,15.15-2.06Z"/>
                <path class="cls-17" d="M102.48,95.29c-12.67,7.27-22.98,25.12-22.98,39.8s10.31,20.71,22.98,13.44c12.67-7.27,22.98-25.12,22.98-39.81s-10.31-20.71-22.98-13.44Z"/>
                <path class="cls-2" d="M122.99,94.59l-6.08-3.49c-4.34-2.49-10.3-2.14-16.88,1.63-13.23,7.59-23.99,26.23-23.99,41.55,0,7.71,2.73,13.14,7.12,15.66l6.08,3.49c-4.39-2.52-7.12-7.95-7.12-15.66,0-15.32,10.76-33.97,23.99-41.55,6.57-3.77,12.54-4.11,16.88-1.63h0Z"/>
                <path class="cls-18" d="M106.12,151.81c-13.23,7.59-23.99,1.29-23.99-14.04s10.76-33.97,23.99-41.55c5.09-2.92,9.81-3.78,13.7-2.87,6.22,1.46,10.29,7.47,10.29,16.9,0,15.33-10.76,33.97-23.99,41.56ZM83.14,137.19c0,14.68,10.31,20.71,22.98,13.44,12.67-7.27,22.98-25.12,22.98-39.81s-10.31-20.71-22.98-13.44c-12.67,7.27-22.98,25.12-22.98,39.8h0Z"/>
              </g>
              <path class="cls-24" d="M82.13,137.77c.36-25.21,22.44-48.01,37.69-44.42-14.94-2.57-35.91,19.32-37.69,44.42Z"/>
            </g>
          </g>
          <circle class="cls-19" cx="100.05" cy="100.86" r="35.68" transform="translate(-21.37 174.62) rotate(-76.51)"/>
        </g>
      </g>
    </g>
  </g>
</svg>